<?xml version="1.0" encoding="UTF-8" standalone="no"?>
<!DOCTYPE svg PUBLIC "-//W3C//DTD SVG 1.1//EN" "http://www.w3.org/Graphics/SVG/1.1/DTD/svg11.dtd">
<svg width="100%" height="100%" viewBox="0 0 2481 3508" version="1.1" xmlns="http://www.w3.org/2000/svg" xmlns:xlink="http://www.w3.org/1999/xlink" xml:space="preserve" xmlns:serif="http://www.serif.com/" style="fill-rule:evenodd;clip-rule:evenodd;stroke-linecap:round;stroke-miterlimit:10;">
    <g id="Beinheben" transform="matrix(4.16667,0,0,4.16667,0,0)">
        <g transform="matrix(0.980205,0.197983,0.197983,-0.980205,207.628,364.717)">
            <path d="M-1.416,-14.161L141.632,-14.161" style="fill:none;fill-rule:nonzero;stroke:rgb(29,29,27);stroke-width:1px;"/>
        </g>
        <g transform="matrix(0.0560942,0.998425,0.998425,-0.0560942,218.161,394.076)">
            <path d="M-7.37,-7.796L8.246,-7.796" style="fill:none;fill-rule:nonzero;stroke:rgb(29,29,27);stroke-width:1px;"/>
        </g>
        <g transform="matrix(0.741106,0.671388,0.671388,-0.741106,196.235,410.759)">
            <path d="M3.241,-1.249C1.67,-3.833 0.397,-3.767 0.397,-1.101C0.396,1.564 1.67,5.82 3.241,8.404C4.811,10.988 6.084,10.922 6.085,8.256C6.085,5.589 4.812,1.334 3.241,-1.249Z" style="fill:white;fill-rule:nonzero;stroke:rgb(29,29,27);stroke-width:1px;stroke-linecap:butt;"/>
        </g>
        <g transform="matrix(0.991952,-0.126613,-0.126613,-0.991952,212.787,375.96)">
            <path d="M-0.233,3.669L57.715,3.669" style="fill:none;fill-rule:nonzero;stroke:rgb(29,29,27);stroke-width:1px;"/>
        </g>
        <g transform="matrix(0.00184049,0.999998,0.999998,-0.00184049,265.056,406.756)">
            <path d="M4.075,-4.068C3.318,-6.339 2.706,-6.354 2.706,-4.103C2.707,-1.853 3.319,1.812 4.075,4.082C4.831,6.353 5.443,6.368 5.444,4.118C5.443,1.867 4.831,-1.797 4.075,-4.068" style="fill:white;fill-rule:nonzero;"/>
        </g>
        <g transform="matrix(0.00184049,0.999998,0.999998,-0.00184049,265.056,406.756)">
            <path d="M4.075,-4.068C3.318,-6.339 2.706,-6.354 2.706,-4.103C2.707,-1.853 3.319,1.812 4.075,4.082C4.831,6.353 5.443,6.368 5.444,4.118C5.443,1.867 4.831,-1.797 4.075,-4.068Z" style="fill:white;fill-rule:nonzero;stroke:rgb(29,29,27);stroke-width:1px;stroke-linecap:butt;"/>
        </g>
        <g transform="matrix(0,-1,-1,0,174.306,338.888)">
            <ellipse cx="-29.789" cy="0" rx="29.788" ry="29.789" style="fill:white;stroke:rgb(29,29,27);stroke-width:1px;"/>
        </g>
        <g transform="matrix(0.0273656,0.999625,0.999625,-0.0273656,293.576,387.155)">
            <path d="M-22.694,-23.324L23.971,-23.324" style="fill:none;fill-rule:nonzero;stroke:rgb(29,29,27);stroke-width:1px;"/>
        </g>
        <g transform="matrix(0.999999,0.00143979,0.00143979,-0.999999,344.318,405.77)">
            <path d="M-0,-0.092L127.796,-0.092" style="fill:none;fill-rule:nonzero;stroke:rgb(29,29,27);stroke-width:1px;stroke-linecap:butt;"/>
        </g>
        <g transform="matrix(0,-1,-1,0,470.226,402.137)">
            <ellipse cx="-6.86" cy="0" rx="2.007" ry="6.86" style="fill:none;stroke:rgb(29,29,27);stroke-width:1px;stroke-linecap:butt;"/>
        </g>
        <g transform="matrix(0,-1,-1,0,471.195,401.076)">
            <path d="M-6.86,-6.86C-5.751,-6.86 -4.853,-3.788 -4.853,-0C-4.853,3.789 -5.751,6.86 -6.86,6.86C-7.969,6.86 -8.868,3.789 -8.868,-0C-8.868,-3.788 -7.969,-6.86 -6.86,-6.86" style="fill:white;fill-rule:nonzero;"/>
        </g>
        <g transform="matrix(0,-1,-1,0,471.195,401.076)">
            <ellipse cx="-6.86" cy="0" rx="2.007" ry="6.86" style="fill:none;stroke:rgb(29,29,27);stroke-width:1px;stroke-linecap:butt;"/>
        </g>
        <g transform="matrix(0.999998,0.0019855,0.0019855,-0.999998,343.625,407.882)">
            <path d="M-0,-0.12L120.876,-0.12" style="fill:none;fill-rule:nonzero;stroke:rgb(29,29,27);stroke-width:1px;stroke-linecap:butt;"/>
        </g>
        <g transform="matrix(1,0,0,1,116.561,416.607)">
            <path d="M0,0L377.868,0" style="fill:none;fill-rule:nonzero;stroke:rgb(29,29,27);stroke-width:2.83px;stroke-linecap:butt;"/>
        </g>
        <g transform="matrix(0.991717,0.128443,0.128443,-0.991717,206.438,500.417)">
            <path d="M-0.583,-9.037L140.141,-9.038" style="fill:none;fill-rule:nonzero;stroke:rgb(29,29,27);stroke-width:1px;"/>
        </g>
        <g transform="matrix(0.00184049,0.999998,0.999998,-0.00184049,265.788,538.814)">
            <path d="M4.075,-4.068C3.318,-6.339 2.706,-6.354 2.706,-4.103C2.707,-1.853 3.319,1.812 4.075,4.082C4.831,6.353 5.443,6.368 5.444,4.118C5.443,1.867 4.831,-1.797 4.075,-4.068" style="fill:white;fill-rule:nonzero;"/>
        </g>
        <g transform="matrix(0.00184049,0.999998,0.999998,-0.00184049,265.788,538.814)">
            <path d="M4.075,-4.068C3.318,-6.339 2.706,-6.354 2.706,-4.103C2.707,-1.853 3.319,1.812 4.075,4.082C4.831,6.353 5.443,6.368 5.444,4.118C5.443,1.867 4.831,-1.797 4.075,-4.068Z" style="fill:white;fill-rule:nonzero;stroke:rgb(29,29,27);stroke-width:1px;stroke-linecap:butt;"/>
        </g>
        <g transform="matrix(0,-1,-1,0,176.109,470.08)">
            <ellipse cx="-29.789" cy="0" rx="29.788" ry="29.789" style="fill:white;stroke:rgb(29,29,27);stroke-width:1px;"/>
        </g>
        <g transform="matrix(0.938589,-0.345036,-0.345036,-0.938589,356.149,546.334)">
            <path d="M-4.079,22.916L128.754,22.916" style="fill:none;fill-rule:nonzero;stroke:rgb(29,29,27);stroke-width:1px;stroke-linecap:butt;"/>
        </g>
        <g transform="matrix(0,-1,-1,0,472.34,535.314)">
            <ellipse cx="-6.86" cy="0" rx="2.007" ry="6.86" style="fill:white;stroke:rgb(29,29,27);stroke-width:1px;stroke-linecap:butt;"/>
        </g>
        <g transform="matrix(-0.351363,-0.936239,-0.936239,0.351363,464.035,476.129)">
            <path d="M-6.423,-9.271C-5.314,-9.271 -4.416,-6.199 -4.416,-2.411C-4.415,1.379 -5.314,4.45 -6.423,4.45C-7.531,4.45 -8.43,1.378 -8.43,-2.41C-8.431,-6.2 -7.532,-9.271 -6.423,-9.271" style="fill:white;fill-rule:nonzero;"/>
        </g>
        <g transform="matrix(-0.351363,-0.936239,-0.936239,0.351363,464.035,476.129)">
            <ellipse cx="-6.423" cy="-2.41" rx="2.008" ry="6.861" style="fill:none;stroke:rgb(29,29,27);stroke-width:1px;stroke-linecap:butt;"/>
        </g>
        <g transform="matrix(0.994465,0.105073,0.105073,-0.994465,344.758,522.559)">
            <path d="M-0.339,-6.426L121.977,-6.426" style="fill:none;fill-rule:nonzero;stroke:rgb(29,29,27);stroke-width:1px;"/>
        </g>
        <g transform="matrix(1,0,0,1,117.445,550.13)">
            <path d="M0,0L377.868,0" style="fill:none;fill-rule:nonzero;stroke:rgb(29,29,27);stroke-width:2.83px;stroke-linecap:butt;"/>
        </g>
        <g transform="matrix(-0.155627,0.987816,0.987816,0.155627,217.679,381.866)">
            <path d="M-8.231,-7.036L6.014,-7.036" style="fill:none;fill-rule:nonzero;stroke:rgb(29,29,27);stroke-width:2.27px;"/>
        </g>
        <g transform="matrix(0.725745,-0.687964,-0.687964,-0.725745,208.823,407.584)">
            <path d="M-0.78,1.957L4.91,1.958" style="fill:none;fill-rule:nonzero;stroke:rgb(29,29,27);stroke-width:1px;"/>
        </g>
        <g transform="matrix(0.991167,-0.13262,-0.13262,-0.991167,214.303,508.365)">
            <path d="M-0.253,3.797L57.016,3.798" style="fill:none;fill-rule:nonzero;stroke:rgb(29,29,27);stroke-width:1px;"/>
        </g>
        <g transform="matrix(0.0273656,0.999625,0.999625,-0.0273656,294.315,519.181)">
            <path d="M-22.694,-23.324L23.971,-23.324" style="fill:none;fill-rule:nonzero;stroke:rgb(29,29,27);stroke-width:1px;"/>
        </g>
        <g transform="matrix(-0.2008,0.979632,0.979632,0.2008,218.554,514.539)">
            <path d="M-8.599,-7.015L5.723,-7.015" style="fill:none;fill-rule:nonzero;stroke:rgb(29,29,27);stroke-width:2.27px;"/>
        </g>
        <g transform="matrix(0.00449097,0.99999,0.99999,-0.00449097,218.498,527.185)">
            <path d="M-7.98,-8.016L8.052,-8.016" style="fill:none;fill-rule:nonzero;stroke:rgb(29,29,27);stroke-width:1px;"/>
        </g>
        <g transform="matrix(0.741106,0.671388,0.671388,-0.741106,195.708,543.275)">
            <path d="M3.241,-1.249C1.67,-3.833 0.397,-3.767 0.397,-1.101C0.396,1.564 1.67,5.82 3.241,8.404C4.811,10.988 6.084,10.922 6.085,8.256C6.085,5.589 4.812,1.334 3.241,-1.249Z" style="fill:white;fill-rule:nonzero;stroke:rgb(29,29,27);stroke-width:1px;stroke-linecap:butt;"/>
        </g>
        <g transform="matrix(0.725745,-0.687964,-0.687964,-0.725745,208.296,540.1)">
            <path d="M-0.78,1.957L4.91,1.958" style="fill:none;fill-rule:nonzero;stroke:rgb(29,29,27);stroke-width:1px;"/>
        </g>
        <g transform="matrix(-0.192915,0.981215,0.981215,0.192915,345.639,407.53)">
            <path d="M-2.294,-1.887L1.552,-1.887" style="fill:none;fill-rule:nonzero;stroke:rgb(29,29,27);stroke-width:2.27px;"/>
        </g>
        <g transform="matrix(-0.192915,0.981215,0.981215,0.192915,345.691,527.965)">
            <path d="M-2.294,-1.887L1.552,-1.887" style="fill:none;fill-rule:nonzero;stroke:rgb(29,29,27);stroke-width:2.27px;"/>
        </g>
    </g>
</svg>
