<?xml version="1.0" encoding="UTF-8" standalone="no"?>
<!DOCTYPE svg PUBLIC "-//W3C//DTD SVG 1.1//EN" "http://www.w3.org/Graphics/SVG/1.1/DTD/svg11.dtd">
<svg width="100%" height="100%" viewBox="0 0 2481 3508" version="1.1" xmlns="http://www.w3.org/2000/svg" xmlns:xlink="http://www.w3.org/1999/xlink" xml:space="preserve" xmlns:serif="http://www.serif.com/" style="fill-rule:evenodd;clip-rule:evenodd;stroke-linecap:round;stroke-miterlimit:10;">
    <g id="DehunungKindhaltung" transform="matrix(4.16667,0,0,4.16667,94,97)">
        <g transform="matrix(-0.996433,0.0843839,0.0843839,0.996433,276.389,353.587)">
            <path d="M-95.416,-4.033L0.17,-4.033" style="fill:none;fill-rule:nonzero;stroke:rgb(29,29,27);stroke-width:1px;"/>
        </g>
        <g transform="matrix(0.0215368,0.999768,0.999768,-0.0215368,385.245,350.269)">
            <path d="M6.499,-6.36C7.972,-6.423 9.165,-3.563 9.165,0.027C9.165,3.617 7.972,6.578 6.499,6.641C5.025,6.703 3.832,3.844 3.832,0.254C3.832,-3.337 5.026,-6.297 6.499,-6.36Z" style="fill:white;fill-rule:nonzero;stroke:rgb(29,29,27);stroke-width:1px;stroke-linecap:butt;"/>
        </g>
        <g transform="matrix(1,-0.000399355,-0.000399355,-1,238.624,341.566)">
            <path d="M-0,0.027L132.714,0.027" style="fill:none;fill-rule:nonzero;stroke:rgb(29,29,27);stroke-width:1px;"/>
        </g>
        <g transform="matrix(-0.98573,0.168335,0.168335,0.98573,158.938,363.607)">
            <path d="M-87.664,-7.432L0.63,-7.432" style="fill:none;fill-rule:nonzero;stroke:rgb(29,29,27);stroke-width:1px;"/>
        </g>
        <g transform="matrix(-0.402977,-0.91521,-0.91521,0.402977,149.241,355.039)">
            <path d="M-2.957,-4.533C-4.163,-6.329 -5.141,-6.34 -5.141,-4.555C-5.141,-2.77 -4.163,0.133 -2.957,1.929C-1.751,3.727 -0.774,3.736 -0.774,1.952C-0.773,0.975 -1.066,-0.338 -1.529,-1.62C-1.912,-2.68 -2.411,-3.72 -2.957,-4.533Z" style="fill:white;fill-rule:nonzero;stroke:rgb(29,29,27);stroke-width:1px;stroke-linecap:butt;"/>
        </g>
        <g transform="matrix(1,0,0,1,134.494,371.221)">
            <path d="M0,0L280.565,0" style="fill:none;fill-rule:nonzero;stroke:rgb(29,29,27);stroke-width:2.83px;stroke-linecap:butt;"/>
        </g>
        <g transform="matrix(0.997786,0.0665068,0.0665068,-0.997786,276.394,346.693)">
            <path d="M-0.114,-3.423L102.838,-3.424" style="fill:none;fill-rule:nonzero;stroke:rgb(29,29,27);stroke-width:1px;"/>
        </g>
        <g transform="matrix(1,0,0,1,396.901,371.301)">
            <path d="M0,0.229C0.021,0.229 0.038,0.178 0.038,0.114C0.038,0.051 0.021,0 0,0C-0.021,0 -0.038,0.051 -0.038,0.114C-0.038,0.178 -0.021,0.229 0,0.229" style="fill:rgb(157,156,156);fill-rule:nonzero;"/>
        </g>
        <g transform="matrix(-1,0,0,1,243.573,343.069)">
            <path d="M0,-3.226C-0.891,-3.226 -1.613,-2.504 -1.613,-1.613C-1.613,-0.722 -0.891,0 0,0C0.891,0 1.613,-0.722 1.613,-1.613C1.613,-2.504 0.891,-3.226 0,-3.226" style="fill:rgb(29,29,27);fill-rule:nonzero;"/>
        </g>
        <g transform="matrix(-1,0,0,1,215.408,364.845)">
            <path d="M0,-46.564C-12.876,-46.564 -23.313,-36.14 -23.313,-23.282C-23.313,-10.423 -12.876,0 0,0C12.876,0 23.313,-10.423 23.313,-23.282C23.313,-36.14 12.876,-46.564 0,-46.564" style="fill:white;fill-rule:nonzero;"/>
        </g>
        <g transform="matrix(1,0,0,1,215.622,329.035)">
            <path d="M0,12.967L-20.892,23.313C-22.485,20.097 -23.313,16.556 -23.313,12.967C-23.313,0.178 -12.789,-10.346 0,-10.346C7.623,-10.346 14.78,-6.608 19.135,-0.352L0,12.967Z" style="fill:rgb(157,156,156);fill-rule:nonzero;"/>
        </g>
        <g transform="matrix(-1,0,0,1,215.408,364.845)">
            <ellipse cx="0" cy="-23.282" rx="23.313" ry="23.282" style="fill:none;stroke:rgb(29,29,27);stroke-width:1px;stroke-linecap:butt;"/>
        </g>
        <g transform="matrix(-0.996089,0.0883553,0.0883553,0.996089,276.239,354.058)">
            <path d="M-96.127,-4.255L0.188,-4.255" style="fill:none;fill-rule:nonzero;stroke:rgb(29,29,27);stroke-width:1px;"/>
        </g>
        <g transform="matrix(-0.0552225,0.998474,0.998474,0.0552225,387.558,354.078)">
            <path d="M6.257,-6.612C7.516,-6.638 8.537,-3.854 8.537,-0.394C8.537,3.067 7.516,5.893 6.257,5.92C4.997,5.947 3.976,3.162 3.976,-0.298C3.976,-3.758 4.998,-6.585 6.257,-6.612" style="fill:white;fill-rule:nonzero;"/>
        </g>
        <g transform="matrix(-0.0552225,0.998474,0.998474,0.0552225,387.558,354.078)">
            <ellipse cx="6.257" cy="-0.345" rx="2.281" ry="6.293" style="fill:none;stroke:rgb(29,29,27);stroke-width:1px;stroke-linecap:butt;"/>
        </g>
        <g transform="matrix(0.995206,0.0977978,0.0977978,-0.995206,276.632,344.768)">
            <path d="M-0.252,-5.143L104.924,-5.143" style="fill:none;fill-rule:nonzero;stroke:rgb(29,29,27);stroke-width:1px;"/>
        </g>
        <g transform="matrix(-0.97916,0.20309,0.20309,0.97916,163.293,367.447)">
            <path d="M-84.067,-8.627L0.885,-8.627" style="fill:none;fill-rule:nonzero;stroke:rgb(29,29,27);stroke-width:1px;"/>
        </g>
        <g transform="matrix(-0.438929,-0.898522,-0.898522,0.438929,152.851,358.128)">
            <path d="M-2.892,-4.631C-4.103,-6.428 -5.085,-6.445 -5.084,-4.668C-5.084,-2.89 -4.103,0.008 -2.892,1.806C-1.68,3.603 -0.698,3.62 -0.699,1.843C-0.699,0.066 -1.68,-2.833 -2.892,-4.631Z" style="fill:white;fill-rule:nonzero;stroke:rgb(29,29,27);stroke-width:1px;stroke-linecap:butt;"/>
        </g>
        <g transform="matrix(-0.324761,-0.945796,-0.945796,0.324761,404.547,432.632)">
            <path d="M-71.433,50.999L36.41,50.999" style="fill:none;fill-rule:nonzero;stroke:rgb(29,29,27);stroke-width:1px;"/>
        </g>
        <g transform="matrix(0.0215368,0.999768,0.999768,-0.0215368,381.392,514.872)">
            <path d="M6.499,-6.36C7.972,-6.423 9.165,-3.563 9.165,0.027C9.165,3.617 7.972,6.578 6.499,6.641C5.025,6.703 3.832,3.844 3.832,0.254C3.832,-3.337 5.026,-6.297 6.499,-6.36Z" style="fill:white;fill-rule:nonzero;stroke:rgb(29,29,27);stroke-width:1px;stroke-linecap:butt;"/>
        </g>
        <g transform="matrix(0.866783,-0.498685,-0.498685,-0.866783,261.933,496.547)">
            <path d="M-8.025,30.043L112.461,30.042" style="fill:none;fill-rule:nonzero;stroke:rgb(29,29,27);stroke-width:1px;"/>
        </g>
        <g transform="matrix(-0.851243,0.524772,0.524772,0.851243,188.474,533.196)">
            <path d="M-80.322,-22.769L6.454,-22.769" style="fill:none;fill-rule:nonzero;stroke:rgb(29,29,27);stroke-width:1px;"/>
        </g>
        <g transform="matrix(-0.403107,-0.915153,-0.915153,0.403107,163.283,515.76)">
            <path d="M-2.957,-4.533C-4.164,-6.329 -5.142,-6.34 -5.141,-4.554C-5.141,-2.77 -4.163,0.133 -2.957,1.929C-1.751,3.726 -0.773,3.736 -0.773,1.952C-0.773,0.166 -1.751,-2.737 -2.957,-4.533Z" style="fill:white;fill-rule:nonzero;stroke:rgb(29,29,27);stroke-width:1px;stroke-linecap:butt;"/>
        </g>
        <g transform="matrix(1,0,0,1,135.754,528.897)">
            <path d="M0,0L277.875,0" style="fill:none;fill-rule:nonzero;stroke:rgb(29,29,27);stroke-width:2.83px;stroke-linecap:butt;"/>
        </g>
        <g transform="matrix(1,0,0,1,380.521,536.838)">
            <path d="M0,0.229C0.021,0.229 0.038,0.178 0.038,0.114C0.038,0.051 0.021,0 0,0C-0.021,0 -0.038,0.051 -0.038,0.114C-0.038,0.178 -0.021,0.229 0,0.229" style="fill:rgb(157,156,156);fill-rule:nonzero;"/>
        </g>
        <g transform="matrix(-0.411279,0.911509,0.911509,0.411279,245.915,470.463)">
            <path d="M1.471,-2.277C0.58,-2.277 -0.142,-1.554 -0.143,-0.664C-0.143,0.227 0.58,0.949 1.471,0.95C2.362,0.949 3.083,0.227 3.084,-0.663C3.083,-1.555 2.361,-2.276 1.471,-2.277" style="fill:rgb(29,29,27);fill-rule:nonzero;"/>
        </g>
        <g transform="matrix(-0.996047,0.0888239,0.0888239,0.996047,223.74,509.295)">
            <path d="M2.068,-46.472C-10.808,-46.472 -21.245,-36.048 -21.245,-23.189C-21.245,-10.331 -10.807,0.093 2.068,0.092C14.944,0.092 25.381,-10.332 25.381,-23.19C25.381,-36.049 14.944,-46.472 2.068,-46.472" style="fill:white;fill-rule:nonzero;"/>
        </g>
        <g transform="matrix(1,-1.33227e-17,1.33227e-17,1,219.872,475.062)">
            <path d="M0,11.737L-19.89,23.898C-21.762,20.836 -22.903,17.383 -23.221,13.808C-24.357,1.069 -14.809,-10.348 -2.071,-11.484C5.522,-12.161 12.983,-9.073 17.876,-3.228L0,11.737Z" style="fill:rgb(157,156,156);fill-rule:nonzero;"/>
        </g>
        <g transform="matrix(-0.996047,0.0888239,0.0888239,0.996047,223.74,509.295)">
            <ellipse cx="2.068" cy="-23.19" rx="23.313" ry="23.282" style="fill:none;stroke:rgb(29,29,27);stroke-width:1px;stroke-linecap:butt;"/>
        </g>
        <g transform="matrix(0.382685,0.923879,0.923879,-0.382685,407.069,427.022)">
            <path d="M-35.339,-52.888L79.153,-52.888" style="fill:none;fill-rule:nonzero;stroke:rgb(29,29,27);stroke-width:1px;"/>
        </g>
        <g transform="matrix(-0.0552225,0.998474,0.998474,0.0552225,374.008,510.481)">
            <ellipse cx="6.257" cy="-0.345" rx="2.281" ry="6.293" style="fill:white;stroke:rgb(29,29,27);stroke-width:1px;stroke-linecap:butt;"/>
        </g>
        <g transform="matrix(-0.821358,0.570413,0.570413,0.821358,194.965,536.189)">
            <path d="M-77.508,-24.274L7.602,-24.274" style="fill:none;fill-rule:nonzero;stroke:rgb(29,29,27);stroke-width:1px;"/>
        </g>
        <g transform="matrix(-0.438929,-0.898522,-0.898522,0.438929,167.305,519.507)">
            <path d="M-2.892,-4.631C-4.103,-6.428 -5.085,-6.445 -5.084,-4.668C-5.084,-2.89 -4.103,0.008 -2.892,1.806C-1.68,3.603 -0.698,3.62 -0.699,1.843C-0.699,0.606 -1.174,-1.174 -1.872,-2.749C-2.176,-3.436 -2.523,-4.084 -2.892,-4.631Z" style="fill:white;fill-rule:nonzero;stroke:rgb(29,29,27);stroke-width:1px;stroke-linecap:butt;"/>
        </g>
        <g transform="matrix(-0.411254,0.911521,0.911521,0.411254,346.266,413.011)">
            <path d="M2.279,-3.528C0.898,-3.527 -0.221,-2.409 -0.221,-1.027C-0.221,0.353 0.898,1.472 2.279,1.472C3.659,1.471 4.778,0.353 4.778,-1.029C4.778,-2.409 3.659,-3.528 2.279,-3.528" style="fill:rgb(29,29,27);fill-rule:nonzero;"/>
        </g>
        <g transform="matrix(0.663855,0.747862,0.747862,-0.663855,367.835,341.121)">
            <path d="M1.87,-0.84C0.49,-0.84 -0.629,0.279 -0.63,1.66C-0.631,3.04 0.489,4.159 1.87,4.159C3.25,4.159 4.369,3.04 4.37,1.66C4.369,0.279 3.25,-0.84 1.87,-0.84" style="fill:rgb(29,29,27);fill-rule:nonzero;"/>
        </g>
    </g>
</svg>
