<?xml version="1.0" encoding="UTF-8" standalone="no"?>
<!DOCTYPE svg PUBLIC "-//W3C//DTD SVG 1.1//EN" "http://www.w3.org/Graphics/SVG/1.1/DTD/svg11.dtd">
<svg width="100%" height="100%" viewBox="0 0 2481 3508" version="1.1" xmlns="http://www.w3.org/2000/svg" xmlns:xlink="http://www.w3.org/1999/xlink" xml:space="preserve" xmlns:serif="http://www.serif.com/" style="fill-rule:evenodd;clip-rule:evenodd;stroke-linecap:round;stroke-miterlimit:10;">
    <g id="DehungStandbeins" transform="matrix(4.16667,0,0,4.16667,16,-22)">
        <g transform="matrix(-0.400012,0.91651,0.91651,0.400012,328.288,410.554)">
            <path d="M-60.237,-39.434L25.815,-39.434" style="fill:none;fill-rule:nonzero;stroke:rgb(29,29,27);stroke-width:1px;"/>
        </g>
        <g transform="matrix(-0.698446,-0.715662,-0.715662,0.698446,296.449,409.904)">
            <path d="M-50.117,21.118L8.898,21.118" style="fill:none;fill-rule:nonzero;stroke:rgb(29,29,27);stroke-width:1px;"/>
        </g>
        <g transform="matrix(0.266163,0.963928,0.963928,-0.266163,368.976,481.244)">
            <path d="M-34.428,-45.223L59.402,-45.223" style="fill:none;fill-rule:nonzero;stroke:rgb(29,29,27);stroke-width:1px;stroke-linecap:butt;"/>
        </g>
        <g transform="matrix(-0.0215368,-0.999768,-0.999768,0.0215368,334.63,544.754)">
            <path d="M-6.498,-6.64C-5.025,-6.703 -3.832,-3.843 -3.832,-0.253C-3.832,3.337 -5.025,6.298 -6.498,6.361C-7.972,6.423 -9.165,3.564 -9.165,-0.026C-9.165,-3.617 -7.971,-6.577 -6.498,-6.64Z" style="fill:rgb(253,249,249);fill-rule:nonzero;stroke:rgb(29,29,27);stroke-width:1px;stroke-linecap:butt;"/>
        </g>
        <g transform="matrix(0.00123719,0.999999,0.999999,-0.00123719,379.295,397.495)">
            <path d="M-62.968,-63.046L63.124,-63.046" style="fill:none;fill-rule:nonzero;stroke:rgb(29,29,27);stroke-width:1px;stroke-linecap:butt;"/>
        </g>
        <g transform="matrix(-0.442604,0.896717,0.896717,0.442604,322.657,412.126)">
            <path d="M-61.538,-38.252L23.777,-38.252" style="fill:none;fill-rule:nonzero;stroke:rgb(29,29,27);stroke-width:1px;"/>
        </g>
        <g transform="matrix(0.00479447,0.999989,0.999989,-0.00479447,273.825,412.108)">
            <path d="M2.92,-2.906C1.741,-4.421 0.784,-4.343 0.784,-2.731C0.784,-1.118 1.741,1.418 2.92,2.934C4.099,4.449 5.056,4.371 5.056,2.759C5.056,1.146 4.099,-1.391 2.92,-2.906Z" style="fill:rgb(252,252,252);fill-rule:nonzero;stroke:rgb(29,29,27);stroke-width:1px;stroke-linecap:butt;"/>
        </g>
        <g transform="matrix(-0.319627,0.947543,0.947543,0.319627,280.346,413.876)">
            <path d="M4.179,-5.819C5.102,-6.051 5.851,-4.264 5.851,-1.829C5.851,0.607 5.102,2.768 4.179,3C3.255,3.232 2.506,1.445 2.506,-0.99C2.506,-3.425 3.255,-5.587 4.179,-5.819" style="fill:white;fill-rule:nonzero;"/>
        </g>
        <g transform="matrix(-0.319627,0.947543,0.947543,0.319627,280.346,413.876)">
            <path d="M4.179,-5.819C5.102,-6.051 5.851,-4.264 5.851,-1.829C5.851,0.607 5.102,2.768 4.179,3C3.255,3.232 2.506,1.445 2.506,-0.99C2.506,-3.425 3.255,-5.587 4.179,-5.819Z" style="fill:none;fill-rule:nonzero;stroke:rgb(29,29,27);stroke-width:1px;stroke-linecap:butt;"/>
        </g>
        <g transform="matrix(1,0,0,1,173.452,557.152)">
            <path d="M0,0L240.841,0" style="fill:none;fill-rule:nonzero;stroke:rgb(29,29,27);stroke-width:2.84px;stroke-linecap:butt;"/>
        </g>
        <g transform="matrix(-0.0338218,0.999428,0.999428,0.0338218,298.162,444.219)">
            <path d="M-24.713,-23.891L23.096,-23.891" style="fill:none;fill-rule:nonzero;stroke:rgb(29,29,27);stroke-width:1px;"/>
        </g>
        <g transform="matrix(0,1,1,0,287.831,492.304)">
            <path d="M0.115,-0.115C0.136,-0.115 0.153,-0.064 0.153,0.001C0.153,0.064 0.136,0.115 0.115,0.115C0.094,0.115 0.077,0.064 0.077,0.001C0.077,-0.064 0.094,-0.115 0.115,-0.115" style="fill:rgb(157,156,156);fill-rule:nonzero;"/>
        </g>
        <g transform="matrix(0,-1,-1,0,316.13,337.652)">
            <path d="M-1.613,-1.613C-2.504,-1.613 -3.226,-0.891 -3.226,0C-3.226,0.891 -2.504,1.613 -1.613,1.613C-0.722,1.613 0,0.891 0,0C0,-0.891 -0.722,-1.613 -1.613,-1.613" style="fill:rgb(29,29,27);fill-rule:nonzero;"/>
        </g>
        <g transform="matrix(0,-1,-1,0,317.075,287.923)">
            <ellipse cx="-23.282" cy="0" rx="23.378" ry="23.282" style="fill:white;stroke:rgb(29,29,27);stroke-width:1px;stroke-linecap:butt;"/>
        </g>
        <g transform="matrix(1,0,0,1,316.636,307.23)">
            <path d="M0,4.19L-10.346,-16.76C-7.13,-18.357 -3.589,-19.188 0,-19.188C12.789,-19.188 23.313,-8.635 23.313,4.19C23.313,11.834 19.575,19.011 13.318,23.378L0,4.19Z" style="fill:rgb(157,156,156);fill-rule:nonzero;"/>
        </g>
        <g transform="matrix(0,-1,-1,0,317.074,287.923)">
            <ellipse cx="-23.282" cy="0" rx="23.378" ry="23.282" style="fill:none;stroke:rgb(29,29,27);stroke-width:1px;stroke-linecap:butt;"/>
        </g>
        <g transform="matrix(-0.0215368,-0.999768,-0.999768,0.0215368,266.731,460.259)">
            <path d="M-6.498,-6.64C-5.025,-6.703 -3.832,-3.843 -3.832,-0.253C-3.832,3.337 -5.025,6.298 -6.498,6.361C-7.972,6.423 -9.165,3.564 -9.165,-0.026C-9.165,-3.617 -7.971,-6.577 -6.498,-6.64Z" style="fill:rgb(255,253,253);fill-rule:nonzero;stroke:rgb(29,29,27);stroke-width:1px;stroke-linecap:butt;"/>
        </g>
        <g transform="matrix(1,0,0,1,211.567,472.71)">
            <path d="M0,0L91.577,0" style="fill:none;fill-rule:nonzero;stroke:rgb(29,29,27);stroke-width:5.67px;stroke-linecap:butt;"/>
        </g>
        <g transform="matrix(0,1,1,0,264.313,515.571)">
            <path d="M-40.15,-40.15L40.15,-40.15" style="fill:none;fill-rule:nonzero;stroke:rgb(29,29,27);stroke-width:1px;stroke-linecap:butt;"/>
        </g>
        <g transform="matrix(0,1,1,0,333.054,515.734)">
            <path d="M-40.434,-40.434L40.434,-40.434" style="fill:none;fill-rule:nonzero;stroke:rgb(29,29,27);stroke-width:1px;stroke-linecap:butt;"/>
        </g>
        <g transform="matrix(0,-1,-1,0,316.05,456.618)">
            <path d="M-2.5,-2.5C-3.881,-2.5 -5,-1.381 -5,0C-5,1.381 -3.881,2.5 -2.5,2.5C-1.119,2.5 0,1.381 0,0C0,-1.381 -1.119,-2.5 -2.5,-2.5" style="fill:rgb(29,29,27);fill-rule:nonzero;"/>
        </g>
    </g>
</svg>
