<?xml version="1.0" encoding="UTF-8" standalone="no"?>
<!DOCTYPE svg PUBLIC "-//W3C//DTD SVG 1.1//EN" "http://www.w3.org/Graphics/SVG/1.1/DTD/svg11.dtd">
<svg width="100%" height="100%" viewBox="0 0 2481 3508" version="1.1" xmlns="http://www.w3.org/2000/svg" xmlns:xlink="http://www.w3.org/1999/xlink" xml:space="preserve" xmlns:serif="http://www.serif.com/" style="fill-rule:evenodd;clip-rule:evenodd;stroke-linecap:round;stroke-miterlimit:10;">
    <g id="HueftHebnung" transform="matrix(4.16667,0,0,4.16667,3.0057,413.149)">
        <g transform="matrix(0.980205,0.197983,0.197983,-0.980205,198.725,256.862)">
            <path d="M-1.416,-14.161L141.632,-14.161" style="fill:none;fill-rule:nonzero;stroke:rgb(29,29,27);stroke-width:1px;"/>
        </g>
        <g transform="matrix(0.0560942,0.998425,0.998425,-0.0560942,209.258,286.222)">
            <path d="M-7.37,-7.796L8.246,-7.796" style="fill:none;fill-rule:nonzero;stroke:rgb(29,29,27);stroke-width:1px;"/>
        </g>
        <g transform="matrix(0.741106,0.671388,0.671388,-0.741106,187.333,302.905)">
            <path d="M3.241,-1.249C1.67,-3.833 0.397,-3.767 0.397,-1.101C0.396,1.564 1.67,5.82 3.241,8.404C4.811,10.988 6.084,10.922 6.085,8.256C6.085,5.589 4.812,1.334 3.241,-1.249Z" style="fill:white;fill-rule:nonzero;stroke:rgb(29,29,27);stroke-width:1px;stroke-linecap:butt;"/>
        </g>
        <g transform="matrix(0.968501,-0.249011,-0.249011,-0.968501,206.895,273.843)">
            <path d="M-1.262,9.976L78.863,9.976" style="fill:none;fill-rule:nonzero;stroke:rgb(29,29,27);stroke-width:1px;"/>
        </g>
        <g transform="matrix(0.892059,0.45192,0.45192,-0.892059,331.011,298.353)">
            <path d="M1.324,-0.316C0.579,-1.859 -0.026,-1.8 -0.025,-0.183C-0.026,1.434 0.578,3.997 1.324,5.541C2.068,7.084 2.673,7.025 2.673,5.407C2.673,3.79 2.068,1.227 1.324,-0.316" style="fill:white;fill-rule:nonzero;"/>
        </g>
        <g transform="matrix(0.892059,0.45192,0.45192,-0.892059,331.011,298.353)">
            <path d="M1.324,-0.316C0.579,-1.859 -0.026,-1.8 -0.025,-0.183C-0.026,1.434 0.578,3.997 1.324,5.541C2.068,7.084 2.673,7.025 2.673,5.407C2.673,3.79 2.068,1.227 1.324,-0.316Z" style="fill:none;fill-rule:nonzero;stroke:rgb(29,29,27);stroke-width:1px;stroke-linecap:butt;"/>
        </g>
        <g transform="matrix(0,-1,-1,0,165.403,231.034)">
            <ellipse cx="-29.789" cy="0" rx="29.788" ry="29.789" style="fill:white;stroke:rgb(29,29,27);stroke-width:1px;"/>
        </g>
        <g transform="matrix(0.748392,0.663257,0.663257,-0.748392,304.017,232.37)">
            <path d="M-9.29,-24.49L64.557,-24.49" style="fill:none;fill-rule:nonzero;stroke:rgb(29,29,27);stroke-width:1px;"/>
        </g>
        <g transform="matrix(1,0,0,1,107.658,308.752)">
            <path d="M0,0L377.868,0" style="fill:none;fill-rule:nonzero;stroke:rgb(29,29,27);stroke-width:1.42px;stroke-linecap:butt;"/>
        </g>
        <g transform="matrix(-0.155627,0.987816,0.987816,0.155627,208.776,274.012)">
            <path d="M-8.231,-7.036L6.014,-7.036" style="fill:none;fill-rule:nonzero;stroke:rgb(29,29,27);stroke-width:2.27px;"/>
        </g>
        <g transform="matrix(0.725745,-0.687964,-0.687964,-0.725745,199.92,299.729)">
            <path d="M-0.78,1.957L4.91,1.958" style="fill:none;fill-rule:nonzero;stroke:rgb(29,29,27);stroke-width:1px;"/>
        </g>
        <g transform="matrix(-0.192915,0.981215,0.981215,0.192915,336.736,299.675)">
            <path d="M-2.294,-1.887L1.552,-1.887" style="fill:none;fill-rule:nonzero;stroke:rgb(29,29,27);stroke-width:2.27px;"/>
        </g>
        <g transform="matrix(0.999173,0.0406561,0.0406561,-0.999173,195.369,412.197)">
            <path d="M-0.056,-2.772L136.282,-2.772" style="fill:none;fill-rule:nonzero;stroke:rgb(29,29,27);stroke-width:1px;"/>
        </g>
        <g transform="matrix(0.0560942,0.998425,0.998425,-0.0560942,209.924,430.724)">
            <path d="M-7.37,-7.796L8.246,-7.796" style="fill:none;fill-rule:nonzero;stroke:rgb(29,29,27);stroke-width:1px;"/>
        </g>
        <g transform="matrix(0.741106,0.671388,0.671388,-0.741106,187.998,447.407)">
            <path d="M3.241,-1.249C1.67,-3.833 0.397,-3.767 0.397,-1.101C0.396,1.564 1.67,5.82 3.241,8.404C4.811,10.988 6.084,10.922 6.085,8.256C6.085,5.589 4.812,1.334 3.241,-1.249Z" style="fill:white;fill-rule:nonzero;stroke:rgb(29,29,27);stroke-width:1px;stroke-linecap:butt;"/>
        </g>
        <g transform="matrix(0.968501,-0.249011,-0.249011,-0.968501,207.561,418.345)">
            <path d="M-1.262,9.976L78.863,9.976" style="fill:none;fill-rule:nonzero;stroke:rgb(29,29,27);stroke-width:1px;"/>
        </g>
        <g transform="matrix(0.892059,0.45192,0.45192,-0.892059,328.202,419.1)">
            <path d="M1.324,-0.316C0.579,-1.859 -0.026,-1.8 -0.025,-0.183C-0.026,1.434 0.578,3.997 1.324,5.541C2.068,7.084 2.673,7.025 2.673,5.407C2.673,3.79 2.068,1.227 1.324,-0.316" style="fill:white;fill-rule:nonzero;"/>
        </g>
        <g transform="matrix(0.892059,0.45192,0.45192,-0.892059,328.202,419.1)">
            <path d="M1.324,-0.316C0.579,-1.859 -0.026,-1.8 -0.025,-0.183C-0.026,1.434 0.578,3.997 1.324,5.541C2.068,7.084 2.673,7.025 2.673,5.407C2.673,3.79 2.068,1.227 1.324,-0.316Z" style="fill:none;fill-rule:nonzero;stroke:rgb(29,29,27);stroke-width:1px;stroke-linecap:butt;"/>
        </g>
        <g transform="matrix(0,-1,-1,0,166.069,375.536)">
            <ellipse cx="-29.789" cy="0" rx="29.788" ry="29.789" style="fill:white;stroke:rgb(29,29,27);stroke-width:1px;"/>
        </g>
        <g transform="matrix(0.898789,0.438382,0.438382,-0.898789,289.618,378.997)">
            <path d="M-2.907,-12.59L54.532,-12.59" style="fill:none;fill-rule:nonzero;stroke:rgb(29,29,27);stroke-width:1px;"/>
        </g>
        <g transform="matrix(0.953079,0.302722,0.302722,-0.953079,336.743,408.512)">
            <path d="M-1.798,-11.6L74.837,-11.6" style="fill:none;fill-rule:nonzero;stroke:rgb(29,29,27);stroke-width:1px;"/>
        </g>
        <g transform="matrix(0.963566,0.267472,0.267472,-0.963566,335.62,412.637)">
            <path d="M-1.382,-10.142L74.455,-10.142" style="fill:none;fill-rule:nonzero;stroke:rgb(29,29,27);stroke-width:1px;"/>
        </g>
        <g transform="matrix(1,0,0,1,108.324,453.254)">
            <path d="M0,0L377.868,0" style="fill:none;fill-rule:nonzero;stroke:rgb(29,29,27);stroke-width:1.42px;stroke-linecap:butt;"/>
        </g>
        <g transform="matrix(-0.155627,0.987816,0.987816,0.155627,209.442,418.514)">
            <path d="M-8.231,-7.036L6.014,-7.036" style="fill:none;fill-rule:nonzero;stroke:rgb(29,29,27);stroke-width:2.27px;"/>
        </g>
        <g transform="matrix(0.725745,-0.687964,-0.687964,-0.725745,200.586,444.232)">
            <path d="M-0.78,1.957L4.91,1.958" style="fill:none;fill-rule:nonzero;stroke:rgb(29,29,27);stroke-width:1px;"/>
        </g>
        <g transform="matrix(-0.103185,0.994662,0.994662,0.103185,333.227,421.077)">
            <path d="M-2.106,-1.899L1.712,-1.899" style="fill:none;fill-rule:nonzero;stroke:rgb(29,29,27);stroke-width:2.27px;"/>
        </g>
        <g transform="matrix(1,0,0,1,108.576,453.245)">
            <path d="M0,0L377.868,0" style="fill:none;fill-rule:nonzero;stroke:rgb(29,29,27);stroke-width:1.42px;stroke-linecap:butt;"/>
        </g>
        <g transform="matrix(0.994242,0.107162,0.107162,-0.994242,402.196,434.003)">
            <path d="M0.165,-0.009C1.678,0.632 2.904,1.842 2.904,2.695C2.904,3.548 1.678,3.721 0.165,3.08C-1.348,2.44 -2.574,1.23 -2.573,0.376C-2.573,-0.477 -1.347,-0.65 0.165,-0.009" style="fill:white;fill-rule:nonzero;"/>
        </g>
        <g transform="matrix(0.994242,0.107162,0.107162,-0.994242,402.196,434.003)">
            <path d="M0.165,-0.009C1.678,0.632 2.904,1.842 2.904,2.695C2.904,3.548 1.678,3.721 0.165,3.08C-1.348,2.44 -2.574,1.23 -2.573,0.376C-2.573,-0.477 -1.347,-0.65 0.165,-0.009Z" style="fill:none;fill-rule:nonzero;stroke:rgb(29,29,27);stroke-width:1px;stroke-linecap:butt;"/>
        </g>
        <g transform="matrix(-0.301264,-0.953541,-0.953541,0.301264,406.698,435.77)">
            <path d="M-5.388,3.949L2.893,3.948" style="fill:none;fill-rule:nonzero;stroke:rgb(29,29,27);stroke-width:1px;"/>
        </g>
        <g transform="matrix(0.983133,0.182891,0.182891,-0.983133,401.604,432.463)">
            <path d="M0.241,-0.022C1.698,0.735 2.88,1.939 2.88,2.667C2.88,3.395 1.698,3.37 0.241,2.613C-1.216,1.856 -2.398,0.652 -2.398,-0.076C-2.398,-0.804 -1.216,-0.779 0.241,-0.022" style="fill:white;fill-rule:nonzero;"/>
        </g>
        <g transform="matrix(0.983133,0.182891,0.182891,-0.983133,401.604,432.463)">
            <path d="M0.241,-0.022C1.698,0.735 2.88,1.939 2.88,2.667C2.88,3.395 1.698,3.37 0.241,2.613C-1.216,1.856 -2.398,0.652 -2.398,-0.076C-2.398,-0.804 -1.216,-0.779 0.241,-0.022Z" style="fill:none;fill-rule:nonzero;stroke:rgb(29,29,27);stroke-width:1px;stroke-linecap:butt;"/>
        </g>
        <g transform="matrix(-0.301159,-0.953574,-0.953574,0.301159,405.347,433.978)">
            <path d="M-4.429,3.246L2.379,3.246" style="fill:none;fill-rule:nonzero;stroke:rgb(29,29,27);stroke-width:1px;"/>
        </g>
        <g transform="matrix(0.998436,0.0558993,0.0558993,-0.998436,335.8,295.333)">
            <path d="M-0.056,-1.997L71.412,-1.997" style="fill:none;fill-rule:nonzero;stroke:rgb(29,29,27);stroke-width:1px;"/>
        </g>
        <g transform="matrix(0.999988,0.00499883,0.00499883,-0.999988,335.081,300.855)">
            <path d="M-0,-0.18L72.016,-0.18" style="fill:none;fill-rule:nonzero;stroke:rgb(29,29,27);stroke-width:1px;"/>
        </g>
        <g transform="matrix(0.988205,-0.153138,-0.153138,-0.988205,403.174,293.787)">
            <path d="M-0.239,-0.018C1.277,0.613 2.506,1.825 2.507,2.689C2.506,3.552 1.277,3.741 -0.239,3.11C-1.755,2.478 -2.984,1.266 -2.985,0.402C-2.985,-0.461 -1.756,-0.65 -0.239,-0.018" style="fill:white;fill-rule:nonzero;"/>
        </g>
        <g transform="matrix(0.988205,-0.153138,-0.153138,-0.988205,403.174,293.787)">
            <path d="M-0.239,-0.018C1.277,0.613 2.506,1.825 2.507,2.689C2.506,3.552 1.277,3.741 -0.239,3.11C-1.755,2.478 -2.984,1.266 -2.985,0.402C-2.985,-0.461 -1.756,-0.65 -0.239,-0.018Z" style="fill:none;fill-rule:nonzero;stroke:rgb(29,29,27);stroke-width:1px;stroke-linecap:butt;"/>
        </g>
        <g transform="matrix(-0.532349,-0.846525,-0.846525,0.532349,406.755,293.853)">
            <path d="M-6.441,3.558L1.966,3.558" style="fill:none;fill-rule:nonzero;stroke:rgb(29,29,27);stroke-width:1px;"/>
        </g>
        <g transform="matrix(0.996981,-0.077643,-0.077643,-0.996981,402.145,292.49)">
            <path d="M-0.104,-0.004C1.359,0.744 2.544,1.947 2.544,2.684C2.544,3.42 1.359,3.411 -0.104,2.662C-1.565,1.914 -2.751,0.711 -2.751,-0.026C-2.751,-0.762 -1.566,-0.752 -0.104,-0.004" style="fill:white;fill-rule:nonzero;"/>
        </g>
        <g transform="matrix(0.996981,-0.077643,-0.077643,-0.996981,402.145,292.49)">
            <path d="M-0.104,-0.004C1.359,0.744 2.544,1.947 2.544,2.684C2.544,3.42 1.359,3.411 -0.104,2.662C-1.565,1.914 -2.751,0.711 -2.751,-0.026C-2.751,-0.762 -1.566,-0.752 -0.104,-0.004Z" style="fill:none;fill-rule:nonzero;stroke:rgb(29,29,27);stroke-width:1px;stroke-linecap:butt;"/>
        </g>
        <g transform="matrix(-0.532326,-0.84654,-0.84654,0.532326,405.127,292.543)">
            <path d="M-5.294,2.925L1.616,2.924" style="fill:none;fill-rule:nonzero;stroke:rgb(29,29,27);stroke-width:1px;"/>
        </g>
    </g>
</svg>
