<?xml version="1.0" encoding="UTF-8" standalone="no"?>
<!DOCTYPE svg PUBLIC "-//W3C//DTD SVG 1.1//EN" "http://www.w3.org/Graphics/SVG/1.1/DTD/svg11.dtd">
<svg width="100%" height="100%" viewBox="0 0 2481 3508" version="1.1" xmlns="http://www.w3.org/2000/svg" xmlns:xlink="http://www.w3.org/1999/xlink" xml:space="preserve" xmlns:serif="http://www.serif.com/" style="fill-rule:evenodd;clip-rule:evenodd;stroke-linecap:round;stroke-miterlimit:10;">
    <g id="NackenRolle" transform="matrix(4.16667,0,0,4.16667,0,0)">
        <g transform="matrix(0.999484,0.0321128,0.0321128,-0.999484,182.042,380.689)">
            <path d="M-0.023,-1.422L88.509,-1.422" style="fill:none;fill-rule:nonzero;stroke:rgb(29,29,27);stroke-width:1px;"/>
        </g>
        <g transform="matrix(0.999963,0.00855844,0.00855844,-0.999963,182.567,380.823)">
            <path d="M-0.001,-0.315L73.493,-0.315" style="fill:none;fill-rule:nonzero;stroke:rgb(29,29,27);stroke-width:1px;"/>
        </g>
        <g transform="matrix(0.119502,-0.992834,-0.992834,-0.119502,261.968,377.001)">
            <path d="M-3.452,-3.061C-2.165,-4.995 -1.12,-5.005 -1.121,-3.085C-1.12,-1.165 -2.164,1.959 -3.452,3.893C-4.74,5.827 -5.784,5.837 -5.784,3.916C-5.784,1.997 -4.74,-1.127 -3.452,-3.061Z" style="fill:white;fill-rule:nonzero;stroke:rgb(29,29,27);stroke-width:1px;stroke-linecap:butt;"/>
        </g>
        <g transform="matrix(-1,0,0,1,326.17,351.673)">
            <path d="M0,-0.247C-0.023,-0.247 -0.041,-0.192 -0.041,-0.124C-0.041,-0.056 -0.023,0 0,0C0.023,0 0.041,-0.056 0.041,-0.124C0.041,-0.192 0.023,-0.247 0,-0.247" style="fill:rgb(157,156,156);fill-rule:nonzero;"/>
        </g>
        <g transform="matrix(1,0,0,1,182.939,379.584)">
            <path d="M0,3.472C0.951,3.472 1.722,2.695 1.722,1.736C1.722,0.778 0.951,0 0,0C-0.951,0 -1.722,0.778 -1.722,1.736C-1.722,2.695 -0.951,3.472 0,3.472" style="fill:rgb(29,29,27);fill-rule:nonzero;"/>
        </g>
        <g transform="matrix(0.918531,0.39535,0.39535,-0.918531,135.411,373.493)">
            <ellipse cx="9.905" cy="23.011" rx="24.89" ry="25.053" style="fill:white;stroke:rgb(29,29,27);stroke-width:1px;stroke-linecap:butt;"/>
        </g>
        <g transform="matrix(1,0,0,1,153.388,363.32)">
            <path d="M0,-7.216L-16.086,-26.26C-19.016,-23.754 -21.335,-20.604 -22.862,-17.056C-28.303,-4.415 -22.46,10.428 -9.918,15.827C-2.443,19.044 6.166,18.37 13.098,14.024L0,-7.216Z" style="fill:rgb(157,156,156);fill-rule:nonzero;"/>
        </g>
        <g transform="matrix(0.918531,0.39535,0.39535,-0.918531,135.411,373.493)">
            <ellipse cx="9.905" cy="23.011" rx="24.89" ry="25.053" style="fill:none;stroke:rgb(29,29,27);stroke-width:1px;stroke-linecap:butt;"/>
        </g>
        <g transform="matrix(0.363716,-0.93151,-0.93151,-0.363716,296.108,378.022)">
            <path d="M-14.289,20.919L30.625,20.919" style="fill:none;fill-rule:nonzero;stroke:rgb(29,29,27);stroke-width:1px;"/>
        </g>
        <g transform="matrix(0.0556066,0.998453,0.998453,-0.0556066,342.742,371.688)">
            <path d="M6.679,-6.317C5.323,-6.345 4.225,-3.371 4.225,0.323C4.225,4.017 5.323,7.035 6.679,7.062C8.034,7.089 9.133,4.116 9.133,0.422C9.133,-3.273 8.035,-6.29 6.679,-6.317" style="fill:white;fill-rule:nonzero;"/>
        </g>
        <g transform="matrix(0.0556066,0.998453,0.998453,-0.0556066,342.742,371.688)">
            <ellipse cx="6.679" cy="0.372" rx="2.454" ry="6.717" style="fill:none;stroke:rgb(29,29,27);stroke-width:1px;stroke-linecap:butt;"/>
        </g>
        <g transform="matrix(0.796333,0.604858,0.604858,-0.796333,303.861,330.848)">
            <path d="M-6.227,-18.494L54.924,-18.494" style="fill:none;fill-rule:nonzero;stroke:rgb(29,29,27);stroke-width:1px;"/>
        </g>
        <g transform="matrix(0.999474,0.0324394,0.0324394,-0.999474,182.145,380.699)">
            <path d="M-0.019,-1.195L73.656,-1.195" style="fill:none;fill-rule:nonzero;stroke:rgb(29,29,27);stroke-width:1px;"/>
        </g>
        <g transform="matrix(-0.666817,0.745222,0.745222,0.666817,273.473,383.739)">
            <path d="M1.996,-4.464C3.476,-4.452 4.676,-3.244 4.676,-1.766C4.677,-0.286 3.477,0.904 1.996,0.892C0.516,0.88 -0.684,-0.328 -0.684,-1.808C-0.684,-3.287 0.516,-4.476 1.996,-4.464" style="fill:rgb(29,29,27);fill-rule:nonzero;"/>
        </g>
        <g transform="matrix(0.119502,-0.992834,-0.992834,-0.119502,261.926,379.542)">
            <path d="M-3.452,-3.061C-2.165,-4.995 -1.12,-5.005 -1.121,-3.085C-1.12,-1.165 -2.164,1.959 -3.452,3.893C-4.74,5.826 -5.784,5.837 -5.784,3.916C-5.784,1.997 -4.74,-1.127 -3.452,-3.061" style="fill:white;fill-rule:nonzero;"/>
        </g>
        <g transform="matrix(0.119502,-0.992834,-0.992834,-0.119502,261.926,379.542)">
            <path d="M-3.452,-3.061C-2.165,-4.995 -1.12,-5.005 -1.121,-3.085C-1.12,-1.165 -2.164,1.959 -3.452,3.893C-4.74,5.826 -5.784,5.837 -5.784,3.916C-5.784,1.997 -4.74,-1.127 -3.452,-3.061Z" style="fill:none;fill-rule:nonzero;stroke:rgb(29,29,27);stroke-width:1px;stroke-linecap:butt;"/>
        </g>
        <g transform="matrix(-1,0,0,1,343.658,373.2)">
            <path d="M0,-0.247C-0.022,-0.247 -0.041,-0.192 -0.041,-0.124C-0.041,-0.056 -0.022,0 0,0C0.023,0 0.041,-0.056 0.041,-0.124C0.041,-0.192 0.023,-0.247 0,-0.247" style="fill:rgb(157,156,156);fill-rule:nonzero;"/>
        </g>
        <g transform="matrix(0.0556108,0.998453,0.998453,-0.0556108,342.742,373.214)">
            <path d="M6.679,-6.317C5.323,-6.345 4.225,-3.371 4.225,0.323C4.225,4.017 5.323,7.035 6.679,7.061C8.034,7.089 9.133,4.116 9.133,0.422C9.133,-3.273 8.035,-6.29 6.679,-6.317" style="fill:white;fill-rule:nonzero;"/>
        </g>
        <g transform="matrix(0.0556108,0.998453,0.998453,-0.0556108,342.742,373.214)">
            <ellipse cx="6.679" cy="0.372" rx="2.454" ry="6.717" style="fill:none;stroke:rgb(29,29,27);stroke-width:1px;stroke-linecap:butt;"/>
        </g>
        <g transform="matrix(0.783654,0.621197,0.621197,-0.783654,304.995,330.772)">
            <path d="M-6.74,-19.352L55.566,-19.352" style="fill:none;fill-rule:nonzero;stroke:rgb(29,29,27);stroke-width:1px;"/>
        </g>
        <g transform="matrix(0,-1,-1,0,174.584,374.306)">
            <path d="M-6.19,-6.19C-9.609,-6.19 -12.38,-3.419 -12.38,-0C-12.38,3.419 -9.609,6.19 -6.19,6.19C-2.771,6.19 -0,3.419 -0,-0C-0,-3.419 -2.771,-6.19 -6.19,-6.19" style="fill:rgb(218,218,218);fill-rule:nonzero;"/>
        </g>
        <g transform="matrix(0,-1,-1,0,174.584,374.306)">
            <circle cx="-6.19" cy="0" r="6.19" style="fill:none;stroke:rgb(29,29,27);stroke-width:1px;stroke-linecap:butt;"/>
        </g>
        <g transform="matrix(1,0,0,1,171.596,380.551)">
            <path d="M0,-7.003C0.975,-7.403 2.876,-8.002 5.007,-7.486C8.446,-6.654 11.067,-3.257 11.37,0.999" style="fill:none;fill-rule:nonzero;stroke:rgb(29,29,27);stroke-width:1px;stroke-linecap:butt;"/>
        </g>
        <g transform="matrix(1,0,0,1,64.9576,394.434)">
            <path d="M0,0L388.174,0" style="fill:none;fill-rule:nonzero;stroke:rgb(29,29,27);stroke-width:2.83px;stroke-linecap:butt;"/>
        </g>
        <g transform="matrix(0.999484,0.0321128,0.0321128,-0.999484,182.105,497.495)">
            <path d="M-0.023,-1.422L88.509,-1.422" style="fill:none;fill-rule:nonzero;stroke:rgb(29,29,27);stroke-width:1px;"/>
        </g>
        <g transform="matrix(0.999963,0.00855844,0.00855844,-0.999963,182.63,497.629)">
            <path d="M-0.001,-0.315L73.493,-0.315" style="fill:none;fill-rule:nonzero;stroke:rgb(29,29,27);stroke-width:1px;"/>
        </g>
        <g transform="matrix(0.119502,-0.992834,-0.992834,-0.119502,262.031,493.808)">
            <path d="M-3.452,-3.061C-2.165,-4.995 -1.12,-5.005 -1.121,-3.085C-1.12,-1.165 -2.164,1.959 -3.452,3.893C-4.74,5.826 -5.784,5.837 -5.784,3.916C-5.784,1.997 -4.74,-1.127 -3.452,-3.061Z" style="fill:white;fill-rule:nonzero;stroke:rgb(29,29,27);stroke-width:1px;stroke-linecap:butt;"/>
        </g>
        <g transform="matrix(1,0,0,1,183.002,496.39)">
            <path d="M0,3.472C0.951,3.472 1.722,2.695 1.722,1.736C1.722,0.778 0.951,0 0,0C-0.951,0 -1.722,0.778 -1.722,1.736C-1.722,2.695 -0.951,3.472 0,3.472" style="fill:rgb(29,29,27);fill-rule:nonzero;"/>
        </g>
        <g transform="matrix(0.918531,0.39535,0.39535,-0.918531,135.474,490.299)">
            <path d="M9.905,-2.041C23.651,-2.042 34.794,9.175 34.794,23.012C34.794,36.848 23.651,48.065 9.905,48.064C-3.842,48.064 -14.985,36.848 -14.985,23.012C-14.985,9.176 -3.842,-2.041 9.905,-2.041" style="fill:rgb(178,178,178);fill-rule:nonzero;"/>
        </g>
        <g transform="matrix(0.918531,0.39535,0.39535,-0.918531,135.474,490.299)">
            <ellipse cx="9.905" cy="23.011" rx="24.89" ry="25.053" style="fill:none;stroke:rgb(29,29,27);stroke-width:1px;stroke-linecap:butt;"/>
        </g>
        <g transform="matrix(0.363716,-0.93151,-0.93151,-0.363716,296.171,494.828)">
            <path d="M-14.289,20.919L30.625,20.919" style="fill:none;fill-rule:nonzero;stroke:rgb(29,29,27);stroke-width:1px;"/>
        </g>
        <g transform="matrix(0.0556108,0.998453,0.998453,-0.0556108,342.805,488.494)">
            <path d="M6.679,-6.317C5.323,-6.345 4.225,-3.371 4.225,0.322C4.225,4.017 5.323,7.035 6.679,7.061C8.034,7.089 9.133,4.116 9.133,0.422C9.133,-3.273 8.035,-6.29 6.679,-6.317" style="fill:white;fill-rule:nonzero;"/>
        </g>
        <g transform="matrix(0.0556108,0.998453,0.998453,-0.0556108,342.805,488.494)">
            <ellipse cx="6.679" cy="0.372" rx="2.454" ry="6.717" style="fill:none;stroke:rgb(29,29,27);stroke-width:1px;stroke-linecap:butt;"/>
        </g>
        <g transform="matrix(0.796333,0.604858,0.604858,-0.796333,303.924,447.655)">
            <path d="M-6.227,-18.494L54.924,-18.494" style="fill:none;fill-rule:nonzero;stroke:rgb(29,29,27);stroke-width:1px;"/>
        </g>
        <g transform="matrix(0.999474,0.0324394,0.0324394,-0.999474,182.208,497.505)">
            <path d="M-0.019,-1.195L73.656,-1.195" style="fill:none;fill-rule:nonzero;stroke:rgb(29,29,27);stroke-width:1px;"/>
        </g>
        <g transform="matrix(-0.666817,0.745222,0.745222,0.666817,273.536,500.545)">
            <path d="M1.996,-4.464C3.476,-4.452 4.676,-3.244 4.676,-1.766C4.677,-0.286 3.477,0.904 1.996,0.892C0.516,0.88 -0.685,-0.328 -0.684,-1.808C-0.684,-3.287 0.516,-4.476 1.996,-4.464" style="fill:rgb(29,29,27);fill-rule:nonzero;"/>
        </g>
        <g transform="matrix(0.119502,-0.992834,-0.992834,-0.119502,261.989,496.348)">
            <path d="M-3.452,-3.061C-2.165,-4.995 -1.12,-5.005 -1.121,-3.085C-1.12,-1.165 -2.164,1.959 -3.452,3.893C-4.74,5.827 -5.784,5.837 -5.784,3.916C-5.784,1.997 -4.74,-1.127 -3.452,-3.061" style="fill:white;fill-rule:nonzero;"/>
        </g>
        <g transform="matrix(0.119502,-0.992834,-0.992834,-0.119502,261.989,496.348)">
            <path d="M-3.452,-3.061C-2.165,-4.995 -1.12,-5.005 -1.121,-3.085C-1.12,-1.165 -2.164,1.959 -3.452,3.893C-4.74,5.827 -5.784,5.837 -5.784,3.916C-5.784,1.997 -4.74,-1.127 -3.452,-3.061Z" style="fill:none;fill-rule:nonzero;stroke:rgb(29,29,27);stroke-width:1px;stroke-linecap:butt;"/>
        </g>
        <g transform="matrix(-1,0,0,1,343.721,490.006)">
            <path d="M0,-0.247C-0.023,-0.247 -0.041,-0.192 -0.041,-0.124C-0.041,-0.056 -0.023,0 0,0C0.023,0 0.041,-0.056 0.041,-0.124C0.041,-0.192 0.023,-0.247 0,-0.247" style="fill:rgb(157,156,156);fill-rule:nonzero;"/>
        </g>
        <g transform="matrix(0.0556108,0.998453,0.998453,-0.0556108,342.805,490.021)">
            <path d="M6.679,-6.317C5.323,-6.345 4.225,-3.371 4.225,0.323C4.225,4.017 5.323,7.035 6.679,7.061C8.034,7.089 9.133,4.116 9.133,0.422C9.133,-3.273 8.035,-6.29 6.679,-6.317" style="fill:white;fill-rule:nonzero;"/>
        </g>
        <g transform="matrix(0.0556108,0.998453,0.998453,-0.0556108,342.805,490.021)">
            <ellipse cx="6.679" cy="0.372" rx="2.454" ry="6.717" style="fill:none;stroke:rgb(29,29,27);stroke-width:1px;stroke-linecap:butt;"/>
        </g>
        <g transform="matrix(0.783654,0.621197,0.621197,-0.783654,305.058,447.578)">
            <path d="M-6.74,-19.352L55.566,-19.352" style="fill:none;fill-rule:nonzero;stroke:rgb(29,29,27);stroke-width:1px;"/>
        </g>
        <g transform="matrix(0,-1,-1,0,174.647,491.112)">
            <path d="M-6.19,-6.19C-9.609,-6.19 -12.38,-3.419 -12.38,-0C-12.38,3.419 -9.609,6.19 -6.19,6.19C-2.771,6.19 -0,3.419 -0,-0C-0,-3.419 -2.771,-6.19 -6.19,-6.19" style="fill:rgb(218,218,218);fill-rule:nonzero;"/>
        </g>
        <g transform="matrix(0,-1,-1,0,174.647,491.112)">
            <circle cx="-6.19" cy="0" r="6.19" style="fill:none;stroke:rgb(29,29,27);stroke-width:1px;stroke-linecap:butt;"/>
        </g>
        <g transform="matrix(1,0,0,1,171.659,497.358)">
            <path d="M0,-7.003C0.975,-7.403 2.876,-8.002 5.007,-7.486C8.446,-6.654 11.067,-3.257 11.37,0.999" style="fill:none;fill-rule:nonzero;stroke:rgb(29,29,27);stroke-width:1px;stroke-linecap:butt;"/>
        </g>
        <g transform="matrix(1,0,0,1,65.0205,511.24)">
            <path d="M0,0L388.174,0" style="fill:none;fill-rule:nonzero;stroke:rgb(29,29,27);stroke-width:2.83px;stroke-linecap:butt;"/>
        </g>
    </g>
</svg>
