<?xml version="1.0" encoding="UTF-8" standalone="no"?>
<!DOCTYPE svg PUBLIC "-//W3C//DTD SVG 1.1//EN" "http://www.w3.org/Graphics/SVG/1.1/DTD/svg11.dtd">
<svg width="100%" height="100%" viewBox="0 0 2481 3508" version="1.1" xmlns="http://www.w3.org/2000/svg" xmlns:xlink="http://www.w3.org/1999/xlink" xml:space="preserve" xmlns:serif="http://www.serif.com/" style="fill-rule:evenodd;clip-rule:evenodd;stroke-linecap:round;stroke-miterlimit:10;">
    <g id="OberschenkelDehnung" transform="matrix(4.16667,0,0,4.16667,71,19)">
        <g transform="matrix(0.0739896,0.997259,0.997259,-0.0739896,327.508,359.007)">
            <path d="M-57.571,-62.001L66.771,-62.001" style="fill:none;fill-rule:nonzero;stroke:rgb(29,29,27);stroke-width:1px;"/>
        </g>
        <g transform="matrix(0.172168,0.985068,0.985068,-0.172168,295.748,441.517)">
            <path d="M-25.746,-30.636L36.455,-30.636" style="fill:none;fill-rule:nonzero;stroke:rgb(29,29,27);stroke-width:1px;"/>
        </g>
        <g transform="matrix(0,1,1,0,320.401,480.637)">
            <path d="M-59.253,-59.253L59.253,-59.253" style="fill:none;fill-rule:nonzero;stroke:rgb(29,29,27);stroke-width:1px;stroke-linecap:butt;"/>
        </g>
        <g transform="matrix(0.00861506,-0.999963,-0.999963,-0.00861506,254.792,533.129)">
            <path d="M-6.5,-6.444C-5.027,-6.507 -3.834,-3.647 -3.834,-0.057C-3.834,3.533 -5.027,6.494 -6.5,6.556C-7.973,6.619 -9.167,3.759 -9.167,0.169C-9.166,-3.421 -7.973,-6.382 -6.5,-6.444Z" style="fill:white;fill-rule:nonzero;stroke:rgb(29,29,27);stroke-width:1px;stroke-linecap:butt;"/>
        </g>
        <g transform="matrix(0.467141,0.884183,0.884183,-0.467141,270.813,426.429)">
            <path d="M3.591,-2.164C4.442,-2.377 5.131,-0.732 5.131,1.512C5.131,3.755 4.441,5.746 3.591,5.96C2.741,6.172 2.05,4.526 2.05,2.284C2.05,0.041 2.74,-1.951 3.591,-2.164Z" style="fill:none;fill-rule:nonzero;stroke:rgb(29,29,27);stroke-width:1px;stroke-linecap:butt;"/>
        </g>
        <g transform="matrix(0.00142395,0.999999,0.999999,-0.00142395,321.1,361.421)">
            <path d="M-59.959,-60.044L60.13,-60.044" style="fill:none;fill-rule:nonzero;stroke:rgb(29,29,27);stroke-width:1px;stroke-linecap:butt;"/>
        </g>
        <g transform="matrix(0.0657715,0.997835,0.997835,-0.0657715,328.392,361.602)">
            <path d="M-59.309,-63.347L67.66,-63.347" style="fill:none;fill-rule:nonzero;stroke:rgb(29,29,27);stroke-width:1px;"/>
        </g>
        <g transform="matrix(1,0,0,1,159.971,546.102)">
            <path d="M0,0L240.841,0" style="fill:none;fill-rule:nonzero;stroke:rgb(29,29,27);stroke-width:2.83px;stroke-linecap:butt;"/>
        </g>
        <g transform="matrix(0.0188874,-0.999822,-0.999822,-0.0188874,298.385,457.665)">
            <path d="M-25.557,26.045L26.541,26.045" style="fill:none;fill-rule:nonzero;stroke:rgb(29,29,27);stroke-width:1px;"/>
        </g>
        <g transform="matrix(0.578222,0.81588,0.81588,-0.578222,271.11,431.366)">
            <path d="M2.382,-1.231C1.203,-2.747 0.246,-2.669 0.246,-1.056C0.246,0.557 1.203,3.093 2.382,4.609C3.562,6.124 4.518,6.046 4.519,4.433C4.518,2.821 3.562,0.285 2.382,-1.231" style="fill:white;fill-rule:nonzero;"/>
        </g>
        <g transform="matrix(0.578222,0.81588,0.81588,-0.578222,271.11,431.366)">
            <path d="M2.382,-1.231C1.203,-2.747 0.246,-2.669 0.246,-1.056C0.246,0.557 1.203,3.093 2.382,4.609C3.562,6.124 4.518,6.046 4.519,4.433C4.518,2.821 3.562,0.285 2.382,-1.231Z" style="fill:none;fill-rule:nonzero;stroke:rgb(29,29,27);stroke-width:1px;stroke-linecap:butt;"/>
        </g>
        <g transform="matrix(0,1,1,0,231.095,459.71)">
            <path d="M0.115,-0.115C0.136,-0.115 0.153,-0.064 0.153,0.001C0.153,0.064 0.136,0.115 0.115,0.115C0.094,0.115 0.077,0.064 0.077,0.001C0.077,-0.064 0.094,-0.115 0.115,-0.115" style="fill:rgb(157,156,156);fill-rule:nonzero;"/>
        </g>
        <g transform="matrix(0,-1,-1,0,261.054,304.884)">
            <path d="M-1.613,-1.613C-2.504,-1.613 -3.226,-0.891 -3.226,0C-3.226,0.891 -2.504,1.613 -1.613,1.613C-0.722,1.613 0,0.891 0,0C0,-0.891 -0.722,-1.613 -1.613,-1.613" style="fill:rgb(29,29,27);fill-rule:nonzero;"/>
        </g>
        <g transform="matrix(0,-1,-1,0,260.947,255.05)">
            <ellipse cx="-23.282" cy="0" rx="23.313" ry="23.282" style="fill:white;stroke:rgb(29,29,27);stroke-width:1px;stroke-linecap:butt;"/>
        </g>
        <g transform="matrix(1,0,0,1,260.508,274.368)">
            <path d="M0,4.178L-10.346,-16.714C-7.13,-18.307 -3.589,-19.135 0,-19.135C12.789,-19.135 23.313,-8.611 23.313,4.178C23.313,11.801 19.575,18.958 13.318,23.313L0,4.178Z" style="fill:rgb(157,156,156);fill-rule:nonzero;"/>
        </g>
        <g transform="matrix(0,-1,-1,0,260.947,255.05)">
            <ellipse cx="-23.282" cy="0" rx="23.313" ry="23.282" style="fill:none;stroke:rgb(29,29,27);stroke-width:1px;stroke-linecap:butt;"/>
        </g>
        <g transform="matrix(-0.687029,-0.72663,-0.72663,0.687029,258.701,422.558)">
            <path d="M-1.816,-4.218C-0.435,-4.218 0.684,-3.098 0.684,-1.718C0.683,-0.338 -0.435,0.782 -1.816,0.782C-3.198,0.782 -4.317,-0.338 -4.316,-1.718C-4.316,-3.1 -3.197,-4.219 -1.816,-4.218" style="fill:rgb(29,29,27);fill-rule:nonzero;"/>
        </g>
        <g transform="matrix(-0.953989,-0.299843,-0.299843,0.953989,271.119,429.411)">
            <path d="M-1.95,-12.702C-0.477,-12.765 0.716,-9.905 0.717,-6.316C0.717,-2.725 -0.476,0.236 -1.95,0.298C-3.423,0.361 -4.616,-2.498 -4.617,-6.089C-4.616,-9.679 -3.422,-12.64 -1.95,-12.702" style="fill:white;fill-rule:nonzero;"/>
        </g>
        <g transform="matrix(-0.953989,-0.299843,-0.299843,0.953989,271.119,429.411)">
            <path d="M-1.95,-12.702C-0.477,-12.765 0.716,-9.905 0.717,-6.316C0.717,-2.725 -0.476,0.236 -1.95,0.298C-3.423,0.361 -4.616,-2.498 -4.617,-6.089C-4.616,-9.679 -3.422,-12.64 -1.95,-12.702Z" style="fill:none;fill-rule:nonzero;stroke:rgb(29,29,27);stroke-width:1px;stroke-linecap:butt;"/>
        </g>
    </g>
</svg>
