<?xml version="1.0" encoding="UTF-8" standalone="no"?>
<!DOCTYPE svg PUBLIC "-//W3C//DTD SVG 1.1//EN" "http://www.w3.org/Graphics/SVG/1.1/DTD/svg11.dtd">
<svg width="100%" height="100%" viewBox="0 0 2481 3508" version="1.1" xmlns="http://www.w3.org/2000/svg" xmlns:xlink="http://www.w3.org/1999/xlink" xml:space="preserve" xmlns:serif="http://www.serif.com/" style="fill-rule:evenodd;clip-rule:evenodd;stroke-miterlimit:10;">
    <g id="RumpfDrehungWand" transform="matrix(4.16667,0,0,4.16667,0,0)">
        <g transform="matrix(0,-1,-1,0,91.6601,494.247)">
            <path d="M-3.818,-3.818C-5.928,-3.818 -7.637,-2.109 -7.637,-0.001C-7.637,2.109 -5.928,3.818 -3.818,3.818C-1.709,3.818 -0.001,2.109 -0.001,-0.001C-0.001,-2.109 -1.709,-3.818 -3.818,-3.818" style="fill:rgb(157,156,156);fill-rule:nonzero;"/>
        </g>
        <g transform="matrix(0,-1,-1,0,91.6601,494.247)">
            <circle cx="-3.819" cy="0" r="3.818" style="fill:none;stroke:rgb(29,29,27);stroke-width:0.28px;"/>
        </g>
        <g transform="matrix(-0.997428,0.07167,0.07167,0.997428,54.4735,343.973)">
            <path d="M-116.119,-4.167L0.149,-4.167" style="fill:none;fill-rule:nonzero;stroke:rgb(29,29,27);stroke-width:1px;stroke-linecap:round;"/>
        </g>
        <g transform="matrix(-0.375614,0.926776,0.926776,0.375614,52.4085,338.352)">
            <path d="M2.003,-2.974C2.866,-4.196 3.566,-4.219 3.565,-3.026C3.566,-1.832 2.866,0.126 2.003,1.35C1.14,2.572 0.441,2.595 0.441,1.402C0.441,0.207 1.141,-1.751 2.003,-2.974Z" style="fill:white;fill-rule:nonzero;stroke:rgb(29,29,27);stroke-width:1px;"/>
        </g>
        <g transform="matrix(0.0673012,0.997733,0.997733,-0.0673012,208.81,502.231)">
            <path d="M-34.626,-37.04L39.623,-37.04" style="fill:none;fill-rule:nonzero;stroke:rgb(29,29,27);stroke-width:1px;"/>
        </g>
        <g transform="matrix(-0.934637,0.355603,0.355603,0.934637,99.0755,510.991)">
            <path d="M-80.249,-14.751L2.711,-14.751" style="fill:none;fill-rule:nonzero;stroke:rgb(29,29,27);stroke-width:1px;"/>
        </g>
        <g transform="matrix(0.00861506,-0.999963,-0.999963,-0.00861506,85.1004,535.783)">
            <path d="M-6.5,-6.444C-5.027,-6.507 -3.834,-3.647 -3.834,-0.057C-3.834,3.533 -5.027,6.494 -6.5,6.556C-7.973,6.619 -9.167,3.759 -9.167,0.169C-9.166,-3.421 -7.973,-6.382 -6.5,-6.444Z" style="fill:white;fill-rule:nonzero;stroke:rgb(29,29,27);stroke-width:1px;"/>
        </g>
        <g transform="matrix(0.499964,0.866046,0.866046,-0.499964,211.181,538.63)">
            <ellipse cx="5.942" cy="3.43" rx="2.008" ry="6.861" style="fill:white;stroke:rgb(29,29,27);stroke-width:1px;"/>
        </g>
        <g transform="matrix(0,1,1,0,241.684,398.253)">
            <path d="M-72.215,-72.215L72.215,-72.215" style="fill:none;fill-rule:nonzero;stroke:rgb(29,29,27);stroke-width:1px;"/>
        </g>
        <g transform="matrix(-0.994135,0.10815,0.10815,0.994135,54.7789,350.842)">
            <path d="M-116.421,-6.314L0.342,-6.314" style="fill:none;fill-rule:nonzero;stroke:rgb(29,29,27);stroke-width:1px;stroke-linecap:round;"/>
        </g>
        <g transform="matrix(0.364604,0.931163,0.931163,-0.364604,49.1974,342.657)">
            <path d="M2.227,-1.52C1.21,-2.707 0.386,-2.599 0.386,-1.278C0.386,0.043 1.211,2.076 2.227,3.264C3.244,4.451 4.068,4.343 4.068,3.022C4.068,1.701 3.244,-0.333 2.227,-1.52Z" style="fill:white;fill-rule:nonzero;stroke:rgb(29,29,27);stroke-width:1px;"/>
        </g>
        <g transform="matrix(1,0,0,1,56.588,548.389)">
            <path d="M0,0L240.841,0" style="fill:none;fill-rule:nonzero;stroke:rgb(29,29,27);stroke-width:2.83px;"/>
        </g>
        <g transform="matrix(1,0,0,1,301.73,548.384)">
            <path d="M0,0L222.068,0" style="fill:none;fill-rule:nonzero;stroke:rgb(29,29,27);stroke-width:2.83px;"/>
        </g>
        <g transform="matrix(-0.00318335,0.999995,0.999995,0.00318335,113.948,520.452)">
            <path d="M-22.532,-22.461L22.389,-22.461" style="fill:none;fill-rule:nonzero;stroke:rgb(29,29,27);stroke-width:1px;"/>
        </g>
        <g transform="matrix(0,-1,-1,0,369.505,495.194)">
            <path d="M-3.818,-3.818C-5.928,-3.818 -7.637,-2.109 -7.637,-0.001C-7.637,2.109 -5.928,3.818 -3.818,3.818C-1.709,3.818 -0.001,2.109 -0.001,-0.001C-0.001,-2.109 -1.709,-3.818 -3.818,-3.818" style="fill:rgb(157,156,156);fill-rule:nonzero;"/>
        </g>
        <g transform="matrix(0,-1,-1,0,369.505,495.194)">
            <circle cx="-3.819" cy="0" r="3.818" style="fill:none;stroke:rgb(29,29,27);stroke-width:0.28px;"/>
        </g>
        <g transform="matrix(0.993905,-0.110241,-0.110241,-0.993905,174.734,546.182)">
            <path d="M-0.148,2.668L48.256,2.668" style="fill:none;fill-rule:nonzero;stroke:rgb(29,29,27);stroke-width:1px;"/>
        </g>
        <g transform="matrix(1,0,0,1,168.913,298.767)">
            <path d="M0,4.178L-10.346,-16.714C-7.13,-18.307 -3.589,-19.135 0,-19.135C12.789,-19.135 23.313,-8.611 23.313,4.178C23.313,11.801 19.575,18.958 13.318,23.313L0,4.178Z" style="fill:rgb(157,156,156);fill-rule:nonzero;"/>
        </g>
        <g transform="matrix(0,-1,-1,0,447.436,280.699)">
            <path d="M-23.282,-23.282C-36.158,-23.282 -46.595,-12.858 -46.595,-0C-46.595,12.859 -36.158,23.282 -23.282,23.282C-10.406,23.282 0.031,12.859 0.031,-0C0.031,-12.858 -10.406,-23.282 -23.282,-23.282" style="fill:rgb(178,178,178);fill-rule:nonzero;"/>
        </g>
        <g transform="matrix(0,-1,-1,0,447.436,280.699)">
            <ellipse cx="-23.282" cy="0" rx="23.313" ry="23.282" style="fill:none;stroke:rgb(29,29,27);stroke-width:1px;"/>
        </g>
        <g transform="matrix(0.999997,0.00244481,0.00244481,-0.999997,473.71,330.769)">
            <path d="M-0,-0.106L86.714,-0.106" style="fill:none;fill-rule:nonzero;stroke:rgb(29,29,27);stroke-width:1px;"/>
        </g>
        <g transform="matrix(-0.376097,0.92658,0.92658,0.376097,564.507,329.466)">
            <path d="M2.001,-2.971C2.863,-4.191 3.563,-4.214 3.562,-3.021C3.563,-1.829 2.863,0.127 2.001,1.347C1.137,2.567 0.438,2.59 0.438,1.397C0.438,0.205 1.138,-1.751 2.001,-2.971Z" style="fill:white;fill-rule:nonzero;stroke:rgb(29,29,27);stroke-width:1px;"/>
        </g>
        <g transform="matrix(0.0672073,0.997739,0.997739,-0.0672073,486.489,503.159)">
            <path d="M-34.629,-37.04L39.619,-37.04" style="fill:none;fill-rule:nonzero;stroke:rgb(29,29,27);stroke-width:1px;"/>
        </g>
        <g transform="matrix(-0.935212,0.354089,0.354089,0.935212,376.782,511.666)">
            <path d="M-80.116,-14.659L2.682,-14.659" style="fill:none;fill-rule:nonzero;stroke:rgb(29,29,27);stroke-width:1px;"/>
        </g>
        <g transform="matrix(0.00854933,-0.999963,-0.999963,-0.00854933,362.895,536.257)">
            <path d="M-6.492,-6.436C-5.028,-6.499 -3.841,-3.643 -3.842,-0.058C-3.842,3.527 -5.028,6.485 -6.492,6.547C-7.955,6.61 -9.142,3.753 -9.141,0.168C-9.141,-3.417 -7.955,-6.374 -6.492,-6.436Z" style="fill:white;fill-rule:nonzero;stroke:rgb(29,29,27);stroke-width:1px;"/>
        </g>
        <g transform="matrix(0.50047,0.865754,0.865754,-0.50047,488.801,539.562)">
            <ellipse cx="5.934" cy="3.431" rx="2.007" ry="6.855" style="fill:white;stroke:rgb(29,29,27);stroke-width:1px;"/>
        </g>
        <g transform="matrix(0,1,1,0,519.366,399.174)">
            <path d="M-72.215,-72.215L72.215,-72.215" style="fill:none;fill-rule:nonzero;stroke:rgb(29,29,27);stroke-width:1px;"/>
        </g>
        <g transform="matrix(-0.999316,0.0369851,0.0369851,0.999316,330.2,338.047)">
            <path d="M-90.654,-1.677L0.031,-1.677" style="fill:none;fill-rule:nonzero;stroke:rgb(29,29,27);stroke-width:1px;"/>
        </g>
        <g transform="matrix(0.365031,0.930996,0.930996,-0.365031,325.622,334.6)">
            <path d="M2.224,-1.517C1.207,-2.702 0.383,-2.592 0.384,-1.273C0.383,0.046 1.207,2.076 2.224,3.261C3.241,4.446 4.065,4.336 4.064,3.017C4.065,1.698 3.241,-0.332 2.224,-1.517Z" style="fill:white;fill-rule:nonzero;stroke:rgb(29,29,27);stroke-width:1px;"/>
        </g>
        <g transform="matrix(-0.00320317,0.999995,0.999995,0.00320317,391.596,521.053)">
            <path d="M-22.393,-22.322L22.25,-22.322" style="fill:none;fill-rule:nonzero;stroke:rgb(29,29,27);stroke-width:1px;"/>
        </g>
        <g transform="matrix(0.993889,-0.110386,-0.110386,-0.993889,452.41,547.103)">
            <path d="M-0.148,2.668L48.192,2.668" style="fill:none;fill-rule:nonzero;stroke:rgb(29,29,27);stroke-width:1px;"/>
        </g>
        <g transform="matrix(0,-1,-1,0,169.352,279.449)">
            <ellipse cx="-23.282" cy="0" rx="23.313" ry="23.282" style="fill:white;stroke:rgb(29,29,27);stroke-width:1px;"/>
        </g>
        <g transform="matrix(0.999294,-0.037559,-0.037559,-0.999294,420.446,333.775)">
            <path d="M-0.019,1.005L53.497,1.005" style="fill:none;fill-rule:nonzero;stroke:rgb(29,29,27);stroke-width:2.27px;stroke-linecap:round;"/>
        </g>
        <g transform="matrix(0,-1,-1,0,447.197,466.998)">
            <path d="M-2.5,-2.5C-1.119,-2.5 0,-1.381 0,0C0,1.381 -1.119,2.5 -2.5,2.5C-3.881,2.5 -5,1.381 -5,0C-5,-1.381 -3.881,-2.5 -2.5,-2.5" style="fill:rgb(29,29,27);fill-rule:nonzero;"/>
        </g>
        <g transform="matrix(0,-1,-1,0,169.253,466.549)">
            <path d="M-2.5,-2.5C-1.119,-2.5 0,-1.381 0,0C0,1.381 -1.119,2.5 -2.5,2.5C-3.881,2.5 -5,1.381 -5,0C-5,-1.381 -3.881,-2.5 -2.5,-2.5" style="fill:rgb(29,29,27);fill-rule:nonzero;"/>
        </g>
        <g transform="matrix(0,-1,-1,0,169.568,329.968)">
            <path d="M-1.9,-1.9C-2.949,-1.9 -3.8,-1.049 -3.8,0C-3.8,1.049 -2.949,1.9 -1.9,1.9C-0.851,1.9 0,1.049 0,0C0,-1.049 -0.851,-1.9 -1.9,-1.9" style="fill:rgb(29,29,27);fill-rule:nonzero;"/>
        </g>
    </g>
</svg>
