<?xml version="1.0" encoding="UTF-8" standalone="no"?>
<!DOCTYPE svg PUBLIC "-//W3C//DTD SVG 1.1//EN" "http://www.w3.org/Graphics/SVG/1.1/DTD/svg11.dtd">
<svg width="100%" height="100%" viewBox="0 0 2481 3508" version="1.1" xmlns="http://www.w3.org/2000/svg" xmlns:xlink="http://www.w3.org/1999/xlink" xml:space="preserve" xmlns:serif="http://www.serif.com/" style="fill-rule:evenodd;clip-rule:evenodd;stroke-linecap:round;stroke-miterlimit:10;">
    <g id="RumpfDrehungBoden" transform="matrix(4.16667,0,0,4.16667,0,0)">
        <g transform="matrix(1,0,0,1,0,-121.948)">
            <rect x="81.832" y="317.566" width="201.566" height="328.706" style="fill:none;stroke:rgb(29,29,27);stroke-width:1px;"/>
        </g>
        <g transform="matrix(1,0,0,1,122.059,382.256)">
            <path d="M0,7.265C-2.006,7.265 -3.633,5.639 -3.633,3.632C-3.633,1.626 -2.006,0 0,0C2.006,0 3.633,1.626 3.633,3.632C3.633,5.639 2.006,7.265 0,7.265" style="fill:rgb(218,218,218);fill-rule:nonzero;"/>
        </g>
        <g transform="matrix(1,0,0,1,122.059,382.256)">
            <path d="M0,7.265C-2.006,7.265 -3.633,5.639 -3.633,3.632C-3.633,1.626 -2.006,0 0,0C2.006,0 3.633,1.626 3.633,3.632C3.633,5.639 2.006,7.265 0,7.265Z" style="fill:none;fill-rule:nonzero;stroke:rgb(29,29,27);stroke-width:0.28px;stroke-linecap:butt;"/>
        </g>
        <g transform="matrix(-0.999768,0.021543,0.021543,0.999768,168.938,501.201)">
            <path d="M0.149,-13.878C1.721,-13.944 2.996,-10.891 2.996,-7.058C2.997,-3.226 1.721,-0.065 0.149,0.002C-1.422,0.068 -2.697,-2.984 -2.697,-6.817C-2.698,-10.65 -1.422,-13.811 0.149,-13.878Z" style="fill:white;fill-rule:nonzero;stroke:rgb(29,29,27);stroke-width:1px;stroke-linecap:butt;"/>
        </g>
        <g transform="matrix(0.000952731,1,1,-0.000952731,228.647,327.012)">
            <path d="M-59.771,-59.828L59.885,-59.828" style="fill:none;fill-rule:nonzero;stroke:rgb(29,29,27);stroke-width:1px;"/>
        </g>
        <g transform="matrix(-0.994274,-0.106862,-0.106862,0.994274,96.8937,261.499)">
            <path d="M-72.717,3.897L0.209,3.896" style="fill:none;fill-rule:nonzero;stroke:rgb(29,29,27);stroke-width:1px;"/>
        </g>
        <g transform="matrix(0.00507313,0.999987,0.999987,-0.00507313,91.3781,259.941)">
            <path d="M3.449,-3.432C2.162,-5.351 1.118,-5.361 1.117,-3.455C1.118,-1.55 2.162,1.55 3.449,3.467C4.737,5.386 5.781,5.396 5.781,3.491C5.781,1.585 4.737,-1.514 3.449,-3.432Z" style="fill:white;fill-rule:nonzero;stroke:rgb(29,29,27);stroke-width:1px;stroke-linecap:butt;"/>
        </g>
        <g transform="matrix(0,1,1,0,218.858,437.361)">
            <path d="M-50.021,-50.021L50.021,-50.021" style="fill:none;fill-rule:nonzero;stroke:rgb(29,29,27);stroke-width:1px;"/>
        </g>
        <g transform="matrix(0,1,1,0,136.866,441.592)">
            <path d="M0.123,-0.123C0.145,-0.123 0.164,-0.068 0.164,-0.001C0.164,0.067 0.145,0.123 0.123,0.123C0.1,0.123 0.082,0.067 0.082,-0.001C0.082,-0.068 0.1,-0.123 0.123,-0.123" style="fill:rgb(157,156,156);fill-rule:nonzero;"/>
        </g>
        <g transform="matrix(0,-1,-1,0,168.85,270.859)">
            <path d="M-1.722,-1.722C-2.673,-1.722 -3.444,-0.951 -3.444,0C-3.444,0.951 -2.673,1.722 -1.722,1.722C-0.771,1.722 0,0.951 0,0C0,-0.951 -0.771,-1.722 -1.722,-1.722" style="fill:rgb(29,29,27);fill-rule:nonzero;"/>
        </g>
        <g transform="matrix(0,-1,-1,0,168.736,217.655)">
            <ellipse cx="-24.856" cy="0" rx="24.89" ry="24.857" style="fill:white;stroke:rgb(29,29,27);stroke-width:1px;stroke-linecap:butt;"/>
        </g>
        <g transform="matrix(1,0,0,1,168.267,238.278)">
            <path d="M0,4.462L-11.046,-17.842C-7.612,-19.543 -3.832,-20.428 0,-20.428C13.654,-20.428 24.89,-9.192 24.89,4.462C24.89,12.6 20.898,20.241 14.219,24.89L0,4.462Z" style="fill:rgb(157,156,156);fill-rule:nonzero;"/>
        </g>
        <g transform="matrix(3.33067e-18,-1,-1,-3.33067e-18,168.736,217.655)">
            <ellipse cx="-24.856" cy="0" rx="24.89" ry="24.857" style="fill:none;stroke:rgb(29,29,27);stroke-width:1px;stroke-linecap:butt;"/>
        </g>
        <g transform="matrix(-0.999623,-0.0274601,-0.0274601,0.999623,121.818,385.034)">
            <path d="M-47.005,0.646L0.009,0.646" style="fill:none;fill-rule:nonzero;stroke:rgb(29,29,27);stroke-width:1px;"/>
        </g>
        <g transform="matrix(-0.998477,-0.0551637,-0.0551637,0.998477,157.332,448.237)">
            <path d="M-0.369,-13.368C0.976,-13.397 2.065,-10.424 2.066,-6.73C2.066,-3.036 0.976,-0.018 -0.369,0.01C-1.714,0.039 -2.803,-2.933 -2.804,-6.627C-2.804,-10.322 -1.714,-13.339 -0.369,-13.368" style="fill:white;fill-rule:nonzero;"/>
        </g>
        <g transform="matrix(-0.998477,-0.0551637,-0.0551637,0.998477,157.332,448.237)">
            <path d="M-0.369,-13.368C0.976,-13.397 2.065,-10.424 2.066,-6.73C2.066,-3.036 0.976,-0.018 -0.369,0.01C-1.714,0.039 -2.803,-2.933 -2.804,-6.627C-2.804,-10.322 -1.714,-13.339 -0.369,-13.368Z" style="fill:none;fill-rule:nonzero;stroke:rgb(29,29,27);stroke-width:1px;stroke-linecap:butt;"/>
        </g>
        <g transform="matrix(0.601838,0.798618,0.798618,-0.601838,148.579,380.861)">
            <path d="M-12.139,-24.349L48.837,-24.349" style="fill:none;fill-rule:nonzero;stroke:rgb(29,29,27);stroke-width:1px;"/>
        </g>
        <g transform="matrix(-0.997706,-0.0676991,-0.0676991,0.997706,96.3247,265.539)">
            <path d="M-72.355,2.452L0.083,2.452" style="fill:none;fill-rule:nonzero;stroke:rgb(29,29,27);stroke-width:1px;"/>
        </g>
        <g transform="matrix(-0.747823,0.663899,0.663899,0.747823,171.548,387.104)">
            <path d="M1.771,-4.665C0.298,-4.665 -0.897,-3.47 -0.898,-1.996C-0.898,-0.522 0.297,0.673 1.771,0.673C3.245,0.673 4.44,-0.522 4.44,-1.996C4.44,-3.47 3.245,-4.665 1.771,-4.665" style="fill:rgb(29,29,27);fill-rule:nonzero;"/>
        </g>
        <g transform="matrix(0.00507313,0.999987,0.999987,-0.00507313,91.1313,262.47)">
            <path d="M3.449,-3.432C2.162,-5.351 1.118,-5.361 1.117,-3.455C1.118,-1.55 2.162,1.55 3.449,3.467C4.737,5.386 5.781,5.396 5.781,3.491C5.781,1.585 4.737,-1.514 3.449,-3.432" style="fill:white;fill-rule:nonzero;"/>
        </g>
        <g transform="matrix(0.00507313,0.999987,0.999987,-0.00507313,91.1313,262.47)">
            <path d="M3.449,-3.432C2.162,-5.351 1.118,-5.361 1.117,-3.455C1.118,-1.55 2.162,1.55 3.449,3.467C4.737,5.386 5.781,5.396 5.781,3.491C5.781,1.585 4.737,-1.514 3.449,-3.432Z" style="fill:none;fill-rule:nonzero;stroke:rgb(29,29,27);stroke-width:1px;stroke-linecap:butt;"/>
        </g>
        <g transform="matrix(1,0,0,1,0,-121.691)">
            <rect x="319.752" y="317.642" width="197.206" height="328.297" style="fill:none;stroke:rgb(29,29,27);stroke-width:1px;"/>
        </g>
        <g transform="matrix(1,0,0,1,371.631,379.565)">
            <path d="M0,7.108C-1.963,7.108 -3.554,5.517 -3.554,3.554C-3.554,1.591 -1.963,0 0,0C1.963,0 3.554,1.591 3.554,3.554C3.554,5.517 1.963,7.108 0,7.108" style="fill:rgb(218,218,218);fill-rule:nonzero;"/>
        </g>
        <g transform="matrix(1,0,0,1,371.631,379.565)">
            <path d="M0,7.108C-1.963,7.108 -3.554,5.517 -3.554,3.554C-3.554,1.591 -1.963,0 0,0C1.963,0 3.554,1.591 3.554,3.554C3.554,5.517 1.963,7.108 0,7.108Z" style="fill:none;fill-rule:nonzero;stroke:rgb(29,29,27);stroke-width:0.28px;stroke-linecap:butt;"/>
        </g>
        <g transform="matrix(-0.999769,0.0215036,0.0215036,0.999769,417.495,495.939)">
            <path d="M0.146,-13.579C1.684,-13.644 2.931,-10.657 2.931,-6.907C2.931,-3.157 1.684,-0.065 0.146,0.001C-1.393,0.067 -2.639,-2.921 -2.639,-6.671C-2.64,-10.421 -1.392,-13.513 0.146,-13.579Z" style="fill:white;fill-rule:nonzero;stroke:rgb(29,29,27);stroke-width:1px;stroke-linecap:butt;"/>
        </g>
        <g transform="matrix(0.0009567,1,1,-0.0009567,475.914,325.515)">
            <path d="M-58.479,-58.535L58.591,-58.535" style="fill:none;fill-rule:nonzero;stroke:rgb(29,29,27);stroke-width:1px;"/>
        </g>
        <g transform="matrix(-0.998878,-0.0473634,-0.0473634,0.998878,346.38,269.683)">
            <path d="M-53.661,1.272L0.03,1.271" style="fill:none;fill-rule:nonzero;stroke:rgb(29,29,27);stroke-width:1px;"/>
        </g>
        <g transform="matrix(0.00503697,0.999987,0.999987,-0.00503697,341.199,265.623)">
            <path d="M3.375,-3.358C2.116,-5.234 1.094,-5.245 1.094,-3.381C1.094,-1.517 2.115,1.516 3.375,3.393C4.635,5.269 5.656,5.28 5.657,3.416C5.656,1.552 4.635,-1.481 3.375,-3.358Z" style="fill:white;fill-rule:nonzero;stroke:rgb(29,29,27);stroke-width:1px;stroke-linecap:butt;"/>
        </g>
        <g transform="matrix(0,1,1,0,466.336,433.478)">
            <path d="M-48.939,-48.939L48.939,-48.939" style="fill:none;fill-rule:nonzero;stroke:rgb(29,29,27);stroke-width:1px;"/>
        </g>
        <g transform="matrix(0,1,1,0,386.117,437.618)">
            <path d="M0.12,-0.12C0.142,-0.12 0.16,-0.066 0.16,0.001C0.16,0.066 0.142,0.12 0.12,0.12C0.098,0.12 0.08,0.066 0.08,0.001C0.08,-0.066 0.098,-0.12 0.12,-0.12" style="fill:rgb(157,156,156);fill-rule:nonzero;"/>
        </g>
        <g transform="matrix(-0.999623,-0.0274581,-0.0274581,0.999623,371.395,382.283)">
            <path d="M-45.989,0.631L0.009,0.631" style="fill:none;fill-rule:nonzero;stroke:rgb(29,29,27);stroke-width:1px;"/>
        </g>
        <g transform="matrix(-0.998478,-0.0551569,-0.0551569,0.998478,406.141,444.12)">
            <path d="M-0.361,-13.08C0.955,-13.107 2.021,-10.2 2.021,-6.586C2.021,-2.971 0.955,-0.019 -0.361,0.01C-1.677,0.037 -2.743,-2.87 -2.742,-6.484C-2.743,-10.1 -1.677,-13.052 -0.361,-13.08" style="fill:white;fill-rule:nonzero;"/>
        </g>
        <g transform="matrix(-0.998478,-0.0551569,-0.0551569,0.998478,406.141,444.12)">
            <path d="M-0.361,-13.08C0.955,-13.107 2.021,-10.2 2.021,-6.586C2.021,-2.971 0.955,-0.019 -0.361,0.01C-1.677,0.037 -2.743,-2.87 -2.742,-6.484C-2.743,-10.1 -1.677,-13.052 -0.361,-13.08Z" style="fill:none;fill-rule:nonzero;stroke:rgb(29,29,27);stroke-width:1px;stroke-linecap:butt;"/>
        </g>
        <g transform="matrix(0.601833,0.798622,0.798622,-0.601833,397.578,378.201)">
            <path d="M-11.877,-23.822L47.781,-23.822" style="fill:none;fill-rule:nonzero;stroke:rgb(29,29,27);stroke-width:1px;"/>
        </g>
        <g transform="matrix(0.999688,-0.0249906,-0.0249906,-0.999688,434.809,274.091)">
            <path d="M-0.007,0.596L47.69,0.596" style="fill:none;fill-rule:nonzero;stroke:rgb(29,29,27);stroke-width:1px;"/>
        </g>
        <g transform="matrix(-0.7478,0.663924,0.663924,0.7478,420.049,384.307)">
            <path d="M1.733,-4.563C0.291,-4.563 -0.878,-3.394 -0.878,-1.952C-0.878,-0.51 0.291,0.659 1.733,0.659C3.174,0.659 4.344,-0.511 4.344,-1.952C4.344,-3.395 3.174,-4.563 1.733,-4.563" style="fill:rgb(29,29,27);fill-rule:nonzero;"/>
        </g>
        <g transform="matrix(0.503714,0.86387,0.86387,-0.503714,485.045,269.842)">
            <path d="M2.916,-1.675C1.656,-3.552 0.635,-3.562 0.634,-1.698C0.634,0.166 1.656,3.198 2.915,5.075C4.175,6.952 5.196,6.962 5.197,5.098C5.197,3.234 4.175,0.202 2.916,-1.675" style="fill:white;fill-rule:nonzero;"/>
        </g>
        <g transform="matrix(0.503714,0.86387,0.86387,-0.503714,485.045,269.842)">
            <path d="M2.916,-1.675C1.656,-3.552 0.635,-3.562 0.634,-1.698C0.634,0.166 1.656,3.198 2.915,5.075C4.175,6.952 5.196,6.962 5.197,5.098C5.197,3.234 4.175,0.202 2.916,-1.675Z" style="fill:none;fill-rule:nonzero;stroke:rgb(29,29,27);stroke-width:1px;stroke-linecap:butt;"/>
        </g>
        <g transform="matrix(-1,0,0,1,399.518,273.324)">
            <path d="M-35.239,0L0,0" style="fill:none;fill-rule:nonzero;stroke:rgb(29,29,27);stroke-width:1.42px;"/>
        </g>
        <g transform="matrix(0,1,1,0,417.479,216.845)">
            <ellipse cx="24.857" cy="0" rx="24.89" ry="24.857" style="fill:white;stroke:rgb(29,29,27);stroke-width:1px;stroke-linecap:butt;"/>
        </g>
        <g transform="matrix(1,0,0,1,417.947,237.468)">
            <path d="M0,4.462L11.046,-17.842C7.612,-19.543 3.832,-20.428 0,-20.428C-13.654,-20.428 -24.89,-9.192 -24.89,4.462C-24.89,12.6 -20.898,20.241 -14.219,24.89L0,4.462Z" style="fill:rgb(157,156,156);fill-rule:nonzero;"/>
        </g>
        <g transform="matrix(0,1,1,0,417.479,216.845)">
            <ellipse cx="24.857" cy="0" rx="24.89" ry="24.857" style="fill:none;stroke:rgb(29,29,27);stroke-width:1px;stroke-linecap:butt;"/>
        </g>
    </g>
</svg>
