<?xml version="1.0" encoding="UTF-8" standalone="no"?>
<!DOCTYPE svg PUBLIC "-//W3C//DTD SVG 1.1//EN" "http://www.w3.org/Graphics/SVG/1.1/DTD/svg11.dtd">
<svg width="100%" height="100%" viewBox="0 0 200 200" version="1.1" xmlns="http://www.w3.org/2000/svg" xmlns:xlink="http://www.w3.org/1999/xlink" xml:space="preserve" xmlns:serif="http://www.serif.com/" style="fill-rule:evenodd;clip-rule:evenodd;stroke-linecap:round;">
    <g transform="matrix(0.885829,0,0,0.88636,13.3708,22.6154)">
        <path d="M140,40L115,40L105,60L105,140L115,160L140,160" style="fill:none;fill-rule:nonzero;stroke:rgb(110,130,136);stroke-width:16px;"/>
    </g>
    <g transform="matrix(0.885829,0,0,0.885829,15.0075,22.589)">
        <path d="M60,40L85,40L95,60L95,140L85,160L60,160" style="fill:none;fill-rule:nonzero;stroke:rgb(123,143,156);stroke-width:16px;"/>
    </g>
    <g transform="matrix(0.885829,0,0,0.885829,14.0617,-32.0583)">
        <circle cx="100" cy="80" r="12" style="fill:rgb(203,125,93);"/>
    </g>
    <g transform="matrix(0.723705,0,0,0.723705,2.87681,8.65543)">
        <circle cx="137.092" cy="131.329" r="110.249" style="fill:none;stroke:rgb(122,139,118);stroke-width:2.07px;stroke-linejoin:round;stroke-miterlimit:1.5;"/>
    </g>
    <g transform="matrix(0.888822,0,0,0.888822,11.5512,15.9831)">
        <rect x="7.817" y="5.731" width="187.589" height="186.85" style="fill:none;stroke:rgb(162,135,119);stroke-width:2.25px;stroke-linejoin:round;stroke-miterlimit:1.5;"/>
    </g>
</svg>
